STARTFONT 2.3
FONT -FontForge-Fontdiner Swanky-Book-R-Normal--24-240-72-72-P-151-ISO10646-1
SIZE 24 72 72  4
FONTBOUNDINGBOX 34 37 -6 -12
COMMENT "Generated by fontforge, http://fontforge.sourceforge.net"
COMMENT "Copyright (c) 2010 by Font Diner, Inc. All rights reserved."
STARTPROPERTIES 40
FOUNDRY "FontForge"
FAMILY_NAME "Fontdiner Swanky"
WEIGHT_NAME "Book"
SLANT "R"
SETWIDTH_NAME "Normal"
ADD_STYLE_NAME ""
PIXEL_SIZE 24
POINT_SIZE 240
RESOLUTION_X 72
RESOLUTION_Y 72
SPACING "P"
AVERAGE_WIDTH 151
CHARSET_REGISTRY "ISO10646"
CHARSET_ENCODING "1"
FONTNAME_REGISTRY ""
CHARSET_COLLECTIONS "ISO10646-1"
BITS_PER_PIXEL 4
FONT_NAME "FontdinerSwanky-Regular"
FACE_NAME "Fontdiner Swanky Regular"
COPYRIGHT "Copyright (c) 2010 by Font Diner, Inc. All rights reserved."
FONT_VERSION "1.001"
FONT_ASCENT 19
FONT_DESCENT 5
UNDERLINE_POSITION -2
UNDERLINE_THICKNESS 2
X_HEIGHT 13
CAP_HEIGHT 14
RAW_ASCENT 799
RAW_DESCENT 200
NORM_SPACE 8
RELATIVE_WEIGHT 40
RELATIVE_SETWIDTH 50
SUPERSCRIPT_X 0
SUPERSCRIPT_Y 11
SUPERSCRIPT_SIZE 15
SUBSCRIPT_X 0
SUBSCRIPT_Y 3
SUBSCRIPT_SIZE 15
AVG_LOWERCASE_WIDTH 151
AVG_UPPERCASE_WIDTH 185
ENDPROPERTIES
CHARS 231
STARTCHAR space
ENCODING 32
SWIDTH 320 0
DWIDTH 8 0
BBX 1 1 0 0
BITMAP
00
ENDCHAR
STARTCHAR exclam
ENCODING 33
SWIDTH 305 0
DWIDTH 7 0
BBX 8 22 0 -1
BITMAP
00332100
00BFFFF4
00BFFFF1
00CFFFE0
00CFFFB0
00DFFF80
00EFFF50
00EFFF20
00FFFF00
00FFFC00
01FFF900
02FFF700
02FFF400
03FFF100
04FFD000
04FFB000
02795000
02630000
6FFF7000
AFFFC000
4EFF7000
01310000
ENDCHAR
STARTCHAR quotedbl
ENCODING 34
SWIDTH 369 0
DWIDTH 9 0
BBX 9 7 0 9
BITMAP
ADDD2DDD80
AFFE1FFF70
8FFC0FFF60
7FFB0DFF50
6FF90CFF30
5FF80BFF20
1673046700
ENDCHAR
STARTCHAR numbersign
ENCODING 35
SWIDTH 702 0
DWIDTH 17 0
BBX 17 17 0 0
BITMAP
000034410004520000
0000DFF3003FF40000
0000EFF1004FF40000
0443FFF2117FF30000
1FFFFFFFFFFFFFFE70
3FFFFFFFFFFFFFFF50
4CCCFFDBAAEFFA9920
0003FF9000CFE00000
0004FF7000EFD00000
0005FF6000FFC00000
69ACFFCBBBFFECCB00
CFFFFFFFFFFFFFFC00
CEEFFFFFFFFFFFFB00
0009FF1117FFA34300
000AFD0008FF800000
000BFC0009FF700000
000552000344100000
ENDCHAR
STARTCHAR dollar
ENCODING 36
SWIDTH 545 0
DWIDTH 13 0
BBX 13 21 0 -3
BITMAP
00005785000000
0000AFF8000000
00008FF6000000
0001AFF7000510
019FFFFFD40C10
1CFFDABEFFBF00
8FFB00019FFF00
BFFC100005FE00
AFFFD610005D00
4FFFFFFB500700
06FFFFFFFD6000
013BFFFFFFFB00
290039EFFFFF70
4F600004CFFFC0
5FF700000DFFC0
7FFFD6336FFF80
8FBFFFFFFFFA00
A6038EFFB93000
40000EFE000000
00000FFF100000
00002FEE200000
ENDCHAR
STARTCHAR percent
ENCODING 37
SWIDTH 657 0
DWIDTH 16 0
BBX 17 21 0 -2
BITMAP
000000000057300000
0058840000CFF90000
1DFFFF8003FFF40000
9FF69FF309FFD00000
BFC02FF61EFF600000
9FE15FF56FFE100000
2EFFFFB0CFF8000000
03ADC813FFF2000000
00000009FFA0000000
0000001EFF30000000
0000006FFC00000000
000000DFF500000000
000004FFD001320000
00000AFF709FFFC300
00001FFF18FFADFD00
00007FF90DFA04FF30
0000DFF30DFA05FF30
0004FFB007FFBEFC00
000AFF40009FFFB200
0006CD000001310000
000001000000000000
ENDCHAR
STARTCHAR ampersand
ENCODING 38
SWIDTH 668 0
DWIDTH 16 0
BBX 19 21 0 -3
BITMAP
00017CEEB50000000000
003EFFBDFF9000000000
00CFF401DFF300000000
01FFF0007FF700000000
00EFF5006FF600000000
00AFFE20BFD100000000
002EFFD6FF4000000000
0005FFFFE50000000000
0000BFFF900060000000
001AFFFFF500A4000000
00BFF7EFFE207E200000
07FFA05FFFD18FC00000
1EFF6009FFFBDFF90000
3FFF7000CFFFF8351000
3FFFE3002EFFF6369B60
0DFFFFB9BFFFFFFFC200
04FFFFFFFEBFFFF70000
002AFFFB604FFC300000
0000010000CF80000000
0000000005C300000000
00000000060000000000
ENDCHAR
STARTCHAR quotesingle
ENCODING 39
SWIDTH 177 0
DWIDTH 4 0
BBX 4 7 0 9
BITMAP
BFFF
AFFD
8FFC
7FFB
6FF9
4FF8
1442
ENDCHAR
STARTCHAR parenleft
ENCODING 40
SWIDTH 384 0
DWIDTH 9 0
BBX 9 24 1 -4
BITMAP
0000018900
00007ED100
001BFF3000
00BFF80000
06FFE10000
0DFF900000
3FFF400000
7FFF100000
9FFD000000
BFFC000000
BFFB000000
CFFB000000
BFFC000000
AFFE000000
8FFF100000
6FFF400000
1FFF900000
0BFFE00000
04FFF50000
009FFC0000
000BFF6000
00009FE200
000003BB00
0000000320
ENDCHAR
STARTCHAR parenright
ENCODING 41
SWIDTH 375 0
DWIDTH 9 0
BBX 8 24 0 -4
BITMAP
79300000
0AFA1000
01DFD200
004FFD10
000BFF90
0005FFF2
0001FFF6
0000CFFA
0000AFFD
00008FFE
00007FFF
00007FFF
00008FFF
0000AFFE
0000CFFC
0001FFF9
0005FFF5
000AFFE1
002FFF70
009FFC00
02FFD200
0CFB1000
8D500000
40000000
ENDCHAR
STARTCHAR asterisk
ENCODING 42
SWIDTH 640 0
DWIDTH 15 0
BBX 16 16 0 0
BITMAP
0000120002000000
0028EA001E800000
009FFF206FFD3000
001DFF80BFFFB000
0004FFE3FFFD1000
10008FFDFFE20000
8FC96EFFFF535683
9FFFFFFFFFFFFFF4
AFFFFFFFFFFFFFF2
BFEC9EFFFF88ABD1
32006FFFFFB00000
0003EFF6FFF90000
001DFF91EFFF6000
008FFF20AFFE7000
0009FA005E810000
0000530001000000
ENDCHAR
STARTCHAR plus
ENCODING 43
SWIDTH 607 0
DWIDTH 15 0
BBX 15 15 0 0
BITMAP
00000AEED3000000
000009FFF3000000
000009FFF2000000
000009FFF2000000
222118FFF1000000
AFFFFFFFFCCBAA30
AFFFFFFFFFFFFF40
BFFFFFFFFFFFFF30
8AAA9CFFE7766610
000007FFD0000000
000006FFC0000000
000006FFC0000000
000006FFB0000000
000005FFA0000000
0000000110000000
ENDCHAR
STARTCHAR comma
ENCODING 44
SWIDTH 226 0
DWIDTH 5 0
BBX 6 7 0 -5
BITMAP
06A820
7FFFD0
BFFFF2
5EFFF1
01CF90
01FC10
078100
ENDCHAR
STARTCHAR hyphen
ENCODING 45
SWIDTH 549 0
DWIDTH 13 0
BBX 11 5 1 6
BITMAP
365432100000
7FFFFFFFFE90
7FFFFFFFFFA0
8FFFFFFFFF90
6BBA99887740
ENDCHAR
STARTCHAR period
ENCODING 46
SWIDTH 226 0
DWIDTH 5 0
BBX 6 5 0 -3
BITMAP
1AED40
9FFFE1
AFFFF1
2CFE70
001000
ENDCHAR
STARTCHAR slash
ENCODING 47
SWIDTH 600 0
DWIDTH 14 0
BBX 16 24 -1 -2
BITMAP
0000000000001000
000000000000C910
000000000006FFD5
00000000001EFFFD
00000000009FFFF4
0000000003FFFFA0
000000000BFFFE10
000000005FFFF600
00000000DFFFC000
00000007FFFF3000
0000001EFFF80000
0000009FFFD10000
000003FFFF500000
00000CFFFB000000
00006FFFE2000000
0001DFFF70000000
0008FFFC00000000
002FFFF400000000
00AFFF9000000000
04FFFE1000000000
0CFFF60000000000
6FFFB00000000000
3CFF200000000000
0067000000000000
ENDCHAR
STARTCHAR zero
ENCODING 48
SWIDTH 740 0
DWIDTH 18 0
BBX 18 16 0 0
BITMAP
000000012210000000
000039DFFFFD820000
001AFFFFFFFFFF6000
01CFFFE8437EFFF700
08FFFD200002EFFF30
1FFFF30000008FFFB0
5FFFB00000001FFFF1
7FFF800000000EFFF3
8FFF800000000CFFF4
6FFFA00000000EFFF2
3FFFD00000002FFFE0
0DFFF40000008FFF80
04FFFD200005FFFD10
007FFFE867BFFFE200
0005EFFFFFFFFB2000
000016ADEDC8300000
ENDCHAR
STARTCHAR one
ENCODING 49
SWIDTH 503 0
DWIDTH 12 0
BBX 16 19 -2 -1
BITMAP
0000000002500000
0000148BEFD00000
16ADFFFFFFC00000
0147AEFFFFC00000
0000008FFFB00000
0000007FFFB00000
0000007FFFB00000
0000006FFFA00000
0000005FFFA00000
0000005FFF900000
0000004FFF900000
0000004FFF800000
0000003FFF800000
0000002FFF700000
0000002FFF700000
0000001FFF600000
0000018FFFB30000
00039FFFFFFFA300
016ABBBBBBBBBB71
ENDCHAR
STARTCHAR two
ENCODING 50
SWIDTH 638 0
DWIDTH 15 0
BBX 16 20 -1 -1
BITMAP
0310000000000000
02B0000033200000
00F703AEFFFD7000
00DF8FFFFFFFFD20
00BFFFF855AFFFC0
009FFE300008FFF5
007FF4000001FFF9
005F90000002FFF9
003F20000006FFF6
001C0000002EFFD1
0006000017EFFE31
00010017EFFFB225
000005DFFFB40095
00008FFFC40002F4
001BFFF7000009F3
00BFFF7000002FF2
06FFFE566778BFF1
0DFFFFFFFFFFFFF1
2FFFFFFFFFFFFFF0
14456677899ABBB0
ENDCHAR
STARTCHAR three
ENCODING 51
SWIDTH 620 0
DWIDTH 15 0
BBX 16 22 -1 -3
BITMAP
0200000000000000
0900000000000000
0980049CDB830000
06F4AFFFFFFFA100
02FFFFEABEFFFC10
00EFF80001AFFF80
00BF8000001EFFC0
008D0000000BFFD0
00560000001EFFB0
0011002003CFFF50
000000FFFFFFF900
000000FFFFFFFE30
003000546CFFFFD0
00740000009FFFF3
00BA0000001FFFF5
00EF4000002FFFF4
03FFE40000BFFFE0
07FFFFB78DFFFF50
0BC3DFFFFFFFE500
0D2006CEFEB71000
3500000000000000
1000000000000000
ENDCHAR
STARTCHAR four
ENCODING 52
SWIDTH 606 0
DWIDTH 15 0
BBX 15 21 -1 -2
BITMAP
0000000000011000
00000000000B2000
00000000009F1000
0000000007FF1000
000000004FFF1000
00000003EFFF0000
0000001DFFFF0000
000000CFFFFE0000
00000AFFFFFE0000
00008FFBCFFE0030
0005FFC1BFFD00B0
003FFD20BFFD04E0
02EFE300BFFD0DE0
1CFFEEEEFFFFFFD0
BFFFFFFEFFFFDFD0
111000009FFB0BC0
000000009FFB04C0
000000008FFA0090
00000002AFFC1020
000005BFFFFFE700
0002899999999860
ENDCHAR
STARTCHAR five
ENCODING 53
SWIDTH 610 0
DWIDTH 15 0
BBX 14 19 0 -1
BITMAP
00000000024697
002468ADFFFFF8
CEFFFFFFFFFFF6
CFFFFFFECA9DF4
9FFD42000007F2
6FFD00000001F0
4FFE02442000A0
1FFFFFFFFE9130
0DFFFFFFFFFE40
0BFC6459FFFFE2
077000003EFFF9
0000000007FFFD
0300000005FFFD
0C30000007FFFC
0FE400001EFFF8
2FFFB547EFFFF2
5FFFFFFFFFFF60
7D28FFFFFFE600
720027ABA72000
ENDCHAR
STARTCHAR six
ENCODING 54
SWIDTH 619 0
DWIDTH 15 0
BBX 15 22 0 -2
BITMAP
0000000000003000
0000000000019000
000000000006B000
000016AA710CD000
0004EFFFFE8FE000
003FFFFFFFFFF100
00CFFFC66AFFF300
07FFFC10003CF500
0DFFF4000000A600
4FFFF9CDDC940400
8FFFFFFFFFFFB100
BFFFFE623AFFFB00
DFFFE20000BFFF50
EFFF8000004FFF90
FFFF3000000FFFB0
DFFF2000000EFFB0
AFFF4000001FFFA0
6FFF9000005FFF50
0DFFE30001DFFD00
03EFFE868DFFE300
002CFFFFFFFB2000
0000379A97300000
ENDCHAR
STARTCHAR seven
ENCODING 55
SWIDTH 598 0
DWIDTH 14 0
BBX 16 20 0 -2
BITMAP
2210000000000000
CFFFFEDDCBAA9884
7FFFFFFFFFFFFFF4
2FFFABCDEFFFFFD0
0DFC000006FFFF70
08F800000AFFFF10
03F500000DFFFA00
00E100002FFFF400
006000006FFFD000
00000000AFFF7000
00000000DFFE1000
00000002FFF90000
00000006FFF30000
0000000AFFC00000
0000000DFF600000
0000002FFE100000
000002AFFB000000
00029FFFFFD60000
018EFFFFFFFFD500
0000001112233420
ENDCHAR
STARTCHAR eight
ENCODING 56
SWIDTH 642 0
DWIDTH 15 0
BBX 16 20 0 -3
BITMAP
00004ADFEC710000
001BFFFFFFFE6000
00CFFF824CFFF600
07FFF90001EFFE10
0CFFF300009FFF50
0DFFF100007FFF60
0BFFF300009FFF50
06FFFA0002EFFE10
00BFFFB78EFFF600
01AFFFFFFFFFE500
0BFFFFDABFFFFF50
7FFFF90002DFFFE1
CFFFC000004FFFF6
FFFF8000000FFFF8
DFFFB000002FFFF7
9FFFF300009FFFF2
1DFFFD4018FFFF70
02CFFFFEFFFFF700
0005BEFFFFD82000
0000002321000000
ENDCHAR
STARTCHAR nine
ENCODING 57
SWIDTH 610 0
DWIDTH 15 0
BBX 15 22 0 -4
BITMAP
0000002210000000
0006BFFFFC700000
01BFFFFFFFFC1000
0BFFF9103DFFC100
6FFFA00002FFF800
BFFF400000BFFE00
EFFF2000009FFF40
FFFF2000009FFF70
DFFF600000DFFF80
9FFFD10007FFFF70
2EFFFC55AFFFFF60
04EFFFFFFFFFFF40
012AFFFFFDEFFF10
0920145522FFFB00
08D300000AFFF500
06FF92019FFFC000
04FFFFEEFFFE2000
02FFEFFFFFE40000
00FA29EFE9200000
00E3000000000000
0080000000000000
0010000000000000
ENDCHAR
STARTCHAR colon
ENCODING 58
SWIDTH 223 0
DWIDTH 5 0
BBX 5 12 0 -3
BITMAP
001000
4DFD30
DFFFD0
DFFFC0
3BEB30
000000
000000
3CEB20
CFFFC0
DFFFD0
4DFE40
001000
ENDCHAR
STARTCHAR semicolon
ENCODING 59
SWIDTH 228 0
DWIDTH 5 0
BBX 5 14 0 -5
BITMAP
001000
3DFD40
CFFFD0
BFFFD0
2BEC30
000000
000000
18A710
AFFFA0
EFFFE0
8FFFC0
02FF60
05FA00
0A6000
ENDCHAR
STARTCHAR less
ENCODING 60
SWIDTH 563 0
DWIDTH 14 0
BBX 15 16 0 0
BITMAP
0000000000007300
00000000004DF800
000000002AFFFC00
00000007EFFFFF10
000005DFFFFFFC20
0002BFFFFFFC5000
018FFFFFFD500000
5DFFFFFD60000000
4DFFFF9000000000
008FFFE500000000
0003CFFF80000000
000006EFFB100000
0000002AFFD30000
000000005DFE5000
00000000019FF300
000000000003C100
ENDCHAR
STARTCHAR equal
ENCODING 61
SWIDTH 531 0
DWIDTH 13 0
BBX 13 10 0 2
BITMAP
22100000000000
DFFFFEDCCBA950
EFFFFFFFFFFF70
EFFFFFFFFFFF60
DDCCBBAAA99830
00000000000000
9BCCCDDEEEFF80
DFFFFFFFFFFF70
EFFFFFFFFFFF70
67899ABCCDEF60
ENDCHAR
STARTCHAR greater
ENCODING 62
SWIDTH 576 0
DWIDTH 14 0
BBX 15 16 0 0
BITMAP
0910000000000000
3FE7000000000000
7FFFC40000000000
BFFFFFA200000000
9FFFFFFE70000000
02AFFFFFFD400000
0003BFFFFFFB2000
000003BFFFFFF810
00000005FFFFE700
0000002DFFFB2000
000004EFFE500000
00007FFF91000000
001AFFD400000000
02DFF80000000000
0DFC200000000000
0B60000000000000
ENDCHAR
STARTCHAR question
ENCODING 63
SWIDTH 592 0
DWIDTH 14 0
BBX 15 22 0 -1
BITMAP
0520000000000000
09A0000000000000
0CFBDEEDB7200000
1FFFDDEFFFF90000
4FC30004CFFFB000
7B0000000AFFF700
9100000001EFFD00
3000000000CFFF10
0000000000DFFF10
0000000005FFFD00
000430007EFFF700
000BFEDFFFFFA000
000DFFFFFFD60000
000FFFE431000000
002FFF8000000000
004FFF2000000000
0015990000000000
0143000000000000
2EFFD20000000000
7FFFFA0000000000
4FFFF90000000000
039B810000000000
ENDCHAR
STARTCHAR at
ENCODING 64
SWIDTH 792 0
DWIDTH 19 0
BBX 20 18 0 -1
BITMAP
00000000012000000000
0000038CFFFFD9300000
0002BFFFECBCFFFB1000
004EFFA4000017EFE200
03FFF5017AB8303EFD10
1DFF505FFCEFF506FF90
6FFB02FF600CFE00EFF1
BFF505FF9007FF30AFF6
DFF201DE4005FF407FF8
FFF10038AA9BFF307FFA
EFF204FFE9AEFF207FF9
DFF40BFF300AFF109FF6
9FF90CFF500CFF00BFF2
3FFE24EFFEFFFE01FFB0
09FFC116885DFE17FE20
00BFFC300005FFEFE400
0007EFFB620039A71000
0000059BCDDA50000000
ENDCHAR
STARTCHAR A
ENCODING 65
SWIDTH 788 0
DWIDTH 19 0
BBX 28 23 -4 -6
BITMAP
0000001000000000000000000000
0000006DEEDCCB80000000000000
000000006DFFFFF3000000000000
00000000006DFFFA000000000000
000000000005FFFF300000000000
00000000000CFFFFA00000000000
00000000005FEFFFF20000000000
0000000000DF6BFFFA0000000000
0000000006FD04FFFF2000000000
000000000DF500BFFF9000000000
000000007FC0004FFFF200000000
00000001EFEDDCBFFFF900000000
00000007FFFFFFFFFFFF20000000
0000001EF9877665EFFF90000000
0000008FB00000008FFFF1000000
000004EF300000002FFFF8000000
0016DFFFA10000000AFFFE100000
29EFFFFFFE50000003FFFF900000
0123456789A6000000CFFFFEA510
000000000000000002DFFFFFFD92
00000000000000001DFFFD952000
0000000000000001DD9510000000
0000000000000003100000000000
ENDCHAR
STARTCHAR B
ENCODING 66
SWIDTH 774 0
DWIDTH 19 0
BBX 22 19 -3 -3
BITMAP
2AEEDDDCCCBBB975200000
005DFFFFFFFFFFFFFD7100
00007EFFFDA99BDFFFFE40
000009FFFA0000029FFFF2
000008FFFA00000008FFF8
000007FFFB00000006FFF8
000005FFFB0000004EFFF3
000004FFFD54469DFFFF50
000003FFFFFFFFFFFFD300
000001FFFFFFFFFFFB1000
000000FFFF557AEFFFE500
000000EFFF200007FFFF40
000000DFFF300000AFFFB0
000000BFFF300000CFFFC0
000000AFFF40003BFFFF80
0000009FFF758CFFFFF900
00002AFFFFFFFFFFE93000
0007EFFFFFEDB963000000
03AA976421000000000000
ENDCHAR
STARTCHAR C
ENCODING 67
SWIDTH 766 0
DWIDTH 18 0
BBX 19 20 0 -2
BITMAP
00000000000000000410
00000003577510002D00
000028EFFFFFFA30BB00
0005EFFFFFFFFFEBF900
006FFFFE84237EFFF700
03FFFFC2000001CFF400
0BFFFE200000001EF200
2FFFF80000000005E000
6FFFF30000000000A000
7FFFF000000000002000
7FFFF000000000000000
6FFFF100000000000000
3FFFF400000000003000
0EFFF900000000019000
07FFFF3000000007D000
00DFFFD30000004FF100
002EFFFF942249FFF400
0002BFFFFFFFFFFAB700
000005BFFFFFFC501900
00000001355410000300
ENDCHAR
STARTCHAR D
ENCODING 68
SWIDTH 833 0
DWIDTH 20 0
BBX 23 18 -3 -1
BITMAP
111100000000000000000000
06CFFFFFFFFFFFEDA6100000
0004AFFFFFFFFFFFFFE70000
0000028FFFFC4458DFFFB100
0000000FFFFA00001AFFFA00
0000000DFFF9000000DFFF40
0000000CFFF80000007FFFA0
0000000BFFF70000003FFFD0
0000000AFFF70000002FFFF0
00000008FFF60000002FFFE0
00000007FFF50000003FFFD0
00000006FFF40000005FFFA0
00000005FFF4000000AFFF50
00000005FFF3000003FFFD00
00000004FFF200016EFFE300
0000005CFFFEEEEFFFFD3000
00003CFFFFFFFFFFFB610000
0017AA987655443200000000
ENDCHAR
STARTCHAR E
ENCODING 69
SWIDTH 781 0
DWIDTH 19 0
BBX 20 19 -2 -1
BITMAP
00000000000000002344
0012345789ABCDEFFFFB
4AFFFFFFFFFFFFFFEFFB
0016AEFFFF6532102FFA
000005FFFF0000000AF9
000005FFFF00006003F9
000004FFFE00059000B8
000004FFFE000D800047
000003FFFE006F800004
000003FFFE67DF800000
000002FFFFFFFF700041
000002FFFFFFFF700091
000001FFFC12CF6000E1
000001FFFC003F6004F1
000000FFFC00086009F2
000000FFFB0000300EF2
000017FFFD7788889FF2
004AFFFFFFFFFFFFFFF2
16888888877777777761
ENDCHAR
STARTCHAR F
ENCODING 70
SWIDTH 731 0
DWIDTH 18 0
BBX 19 20 -2 -2
BITMAP
00000000000000001220
00001345689ABCDFFFC0
39EFFFFFFFFFFFFFFFC0
0027CFFFFE764320DFC0
000008FFFD0000007FC0
000007FFFC0001102FC0
000007FFFC0009200BC0
000007FFFC003F1005B0
000006FFFB00BF1000A0
000006FFFD79FF100050
000005FFFFFFFF100000
000005FFFFFFFF000000
000004FFFA03FF000000
000004FFFA009F000000
000004FFF9001E000000
000003FFF90006000000
000003FFF90000000000
00005BFFFE7100000000
017DFFFFFFFF93000000
04555555555555200000
ENDCHAR
STARTCHAR G
ENCODING 71
SWIDTH 828 0
DWIDTH 20 0
BBX 22 20 0 -1
BITMAP
0000000000000000010000
00000000000000002A0000
0000001478974002DA0000
00003AFFFFFFFE8DF90000
0007FFFFFFFFFFFFF80000
008FFFFD62016EFFF70000
04FFFFC1000001BFF50000
0CFFFE200000001CF40000
2FFFF90000000003F30000
5FFFF50000000000920000
7FFFF30012111111321111
7FFFF20016BFFFFFFFFF93
6FFFF40000028EFFFE7100
3FFFF700000000FFFB0000
0EFFFC00000000FFFC0000
07FFFF60000002FFFE0000
00CFFFF500000AFFFF0000
002DFFFFB657CFFDFF1000
0001AFFFFFFFFFA15F3000
0000038CEEDB8300043000
ENDCHAR
STARTCHAR H
ENCODING 72
SWIDTH 797 0
DWIDTH 19 0
BBX 24 19 -3 -2
BITMAP
000000000005BCCCCCCBBB93
00000000000006CFFFFFD600
16DEEEEEDDDD8108FFFC0000
0006CFFFFF920007FFFB0000
00000BFFF8000006FFFB0000
00000AFFF8000006FFFA0000
00000AFFF8000006FFFA0000
000009FFF7000005FFF90000
000009FFF7000005FFF90000
000008FFFDBBBBBCFFF80000
000008FFFFFFFFFFFFF80000
000007FFFDA97645FFF80000
000007FFF6000003FFF70000
000007FFF6000002FFF70000
000006FFF5000002FFF60000
000006FFF500005BFFFD7100
000005FFF5027DFFFFFFFEA5
00016CFFFC72000000000000
04AFFFFFFFFFC61000000000
ENDCHAR
STARTCHAR I
ENCODING 73
SWIDTH 445 0
DWIDTH 11 0
BBX 15 20 -2 -3
BITMAP
4888777777766620
029EFFFFFFFE9300
00016DFFFE610000
000008FFFC000000
000007FFFC000000
000006FFFB000000
000006FFFB000000
000005FFFA000000
000005FFFA000000
000004FFFA000000
000003FFF9000000
000003FFF9000000
000002FFF8000000
000002FFF8000000
000001FFF8000000
000000FFF7000000
000000FFF7000000
00005BFFFE820000
028EFFFFFFFFB500
0111111111111110
ENDCHAR
STARTCHAR J
ENCODING 74
SWIDTH 718 0
DWIDTH 17 0
BBX 23 21 -3 -3
BITMAP
000000000000000000247820
000000000001368ADFFE7100
000002579CEFFFFFFF910000
00000023579BDFFFF5000000
0000000000000CFFF6000000
00000000000009FFF8000000
00000000000006FFFA000000
00000000000003FFFD000000
00000000000001FFFF000000
00000000000000EFFF200000
00000000000000CFFF300000
00000000000000AFFF400000
000000000000009FFF500000
255555555530009FFF500000
04BFFFFFE60000AFFF400000
0004DFFA100000CFFF100000
00006FF9000001FFFC000000
00001FFE100009FFF5000000
000008FFD4129FFFB0000000
0000009FFFFFFFFA10000000
00000004AEFED93000000000
ENDCHAR
STARTCHAR K
ENCODING 75
SWIDTH 934 0
DWIDTH 22 0
BBX 29 20 -2 -2
BITMAP
122334556678884000000000000000
16BFFFFFFFFD722222222222222000
00027DFFFF50004BFFFFFFFFC61000
000008FFFE0000002BFFFD82000000
000008FFFE0000019FFE6000000000
000007FFFD00006EFFA10000000000
000006FFFD003CFFD4000000000000
000005FFFC19FFF910000000000000
000005FFFEEFFFF700000000000000
000004FFFFFB9FFF50000000000000
000003FFFD500CFFE3000000000000
000002FFFA0002EFFD100000000000
000001FFFA00006FFFB00000000000
000001FFF900000AFFF90000000000
000000FFF9000001EFFF6000000000
000000EFF90000004FFFF400000000
00006DFFFFC7200009FFFE20000000
017EFFFFFFFFFC6100DFFFD2000000
01111111111111113AFFFFFFB50000
000000000000005BEFFFFFFFFFE930
ENDCHAR
STARTCHAR L
ENCODING 76
SWIDTH 712 0
DWIDTH 17 0
BBX 19 19 -2 0
BITMAP
4ADDDDDDDDDDDC710000
0038EFFFFFFD71000000
000008FFFF6000000000
000005FFFF3000000000
000004FFFF3000000000
000003FFFF3000000000
000002FFFF3000000000
000001FFFF2000000000
000001FFFF2000000020
000000FFFF2000000080
000000EFFF20000001D0
000000DFFF10000006E0
000000DFFF1000000CE0
000000CFFF1000003FE0
000000BFFF1000009FE0
000000AFFF000000EFE0
000017EFFFDDCCBCFFE0
0017EFFFFFFFFFFFFFE0
05ABA998776554332110
ENDCHAR
STARTCHAR M
ENCODING 77
SWIDTH 1033 0
DWIDTH 25 0
BBX 29 19 -2 -1
BITMAP
100000000000000000026554433210
29EFFFFFFE600000000AFFFFFFB500
0017DFFFFFD00000004FFFFE820000
000009FFFFF6000000CFFFFC000000
000007FFFFFD000005FFFFFB000000
000006FFFFFF60000DFFFFFA000000
000005FFFFFFD0007FFEFFFA000000
000004FFCFFFF501EF9DFFF9000000
000002FF7CFFFD08FF2DFFF8000000
000001FF74FFFF7FFA0DFFF7000000
000000FF80AFFFFFF20DFFF7000000
000000EF802FFFFFA00DFFF6000000
000000DF9008FFFF200DFFF5000000
000000CF9001EFFA000DFFF5000000
000000BFA0006FF3000DFFF4000000
000000AFA0000CA0000DFFF3000000
000001BFC3000430029FFFFB610000
0027CFFFFFD940018DEEEFFFFFA500
169999999999995100000000111210
ENDCHAR
STARTCHAR N
ENCODING 78
SWIDTH 840 0
DWIDTH 20 0
BBX 25 19 -2 -1
BITMAP
10000000000344455566667720
3AFFFFEEED216CFFFFFFFFA200
0028EFFFFFC10039EFFF920000
000019FFFFFA00001CFA000000
000004FFFFFF70000AF9000000
000004FFFFFFF4000AF9000000
000004FF9FFFFE200AF9000000
000004FF1BFFFFD10AF8000000
000004FF11DFFFFA0AF8000000
000004FF102EFFFF7AF8000000
000004FF2003FFFFFDF8000000
000004FF20005FFFFFF7000000
000004FF200007FFFFF7000000
000004FF3000009FFFF7000000
000004FF3000000BFFF6000000
00004CFFC7100001DFF6000000
006DFFFFFFFA50002EF6000000
5BCCDDDDDDDDDC7103F5000000
00000000000000000055000000
ENDCHAR
STARTCHAR O
ENCODING 79
SWIDTH 808 0
DWIDTH 19 0
BBX 19 16 0 -1
BITMAP
00000158ABCA84000000
0002AFFFFFFFFFD50000
005EFFFFC99CFFFF9000
03FFFFD300005FFFF800
0CFFFD10000007FFFF30
3FFFF500000001EFFF90
6FFFF100000000AFFFC0
8FFFE0000000008FFFE0
7FFFF0000000009FFFD0
4FFFF300000000CFFFA0
0EFFF800000003FFFF50
06FFFF3000001CFFFB00
009FFFE72126DFFFC100
0007EFFFFFFFFFF91000
000028DFFFFFD9300000
00000001343100000000
ENDCHAR
STARTCHAR P
ENCODING 80
SWIDTH 746 0
DWIDTH 18 0
BBX 21 17 -2 -1
BITMAP
4555443322210000000000
05CFFFFFFFFFFDB8400000
0004BFFFFFFFFFFFFD6000
000009FFF511247BFFF800
000009FFF40000006FFF10
000009FFF50000003FFF10
000008FFF5000016EFF800
000008FFFA78ACFFFD6000
000008FFFFFFFFD9400000
000007FFFD763100000000
000007FFFB000000000000
000007FFFC000000000000
000007FFFD000000000000
000006FFFD000000000000
00005DFFFF710000000000
004CFFFFFFFE9300000000
17BBBAAAAA999950000000
ENDCHAR
STARTCHAR Q
ENCODING 81
SWIDTH 789 0
DWIDTH 19 0
BBX 22 24 0 -8
BITMAP
0000002578863000000000
00006CFFFFFFFD60000000
001CFFFFECCFFFFC100000
00CFFFE60002CFFFC00000
07FFFE3000001EFFF70000
0DFFF700000007FFFD0000
2FFFF200000001FFFF3000
3FFFF000000000EFFF4000
3FFFF100000000EFFF4000
1FFFF200000001FFFF2000
0CFFF700000006FFFD0000
05FFFE1000001DFFF60000
00AFFFD30004DFFFA00000
000AFFFFDCEFFFF9000000
00004CFFFFFFFA30000000
000000257AFFF500000000
0000000002FFFC00000000
0000000000DFFF71000000
0000000000AFFFFFEC9752
0000000000AFFFFFFFB730
000000001BFFFFD9510000
00000002DFEB6200000000
0000003B84000000000000
0000001000000000000000
ENDCHAR
STARTCHAR R
ENCODING 82
SWIDTH 826 0
DWIDTH 20 0
BBX 28 22 -2 -6
BITMAP
3777665554432100000000000000
028EFFFFFFFFFFEB720000000000
00017DFFFFEEFFFFFFA100000000
000005FFF8000148EFFD00000000
000005FFF80000002EFF40000000
000005FFF80000001EFF30000000
000005FFF9000026EFF800000000
000004FFFD9ABDFFFC4000000000
000004FFFFFFFFFF500000000000
000004FFFF543EFFB00000000000
000004FFFF0008FFF60000000000
000003FFFF1001EFFE2000000000
000003FFFF10006FFFB000000000
000003FFFF20000DFFF700000000
00005CFFFFA40005FFFF30000000
004CFFFFFFFFD610CFFFC0000000
06999988888777614FFFFCBBAAA5
00000000000000000AFFFFFFD710
00000000000000000BFFFFA40000
00000000000000009FFD71000000
0000000000000008FA4000000000
0000000000000047100000000000
ENDCHAR
STARTCHAR S
ENCODING 83
SWIDTH 661 0
DWIDTH 16 0
BBX 16 20 0 -3
BITMAP
0000000000000013
0001589A973000B4
019FFFFFFFFC59F2
0BFFF9546AFFFFF0
6FFF5000002AFFE0
AFFF400000007FC0
BFFFE830000007A0
7FFFFFFEB7200040
1CFFFFFFFFFC5000
019FFFFFFFFFFB10
00017BFFFFFFFFC0
021000049EFFFFF6
04800000019FFFF9
05F50000000DFFF8
07FF6000001EFFF3
08FFFC8558EFFF70
0AA6DFFFFFFFD400
0B30048AA9730000
0800000000000000
0200000000000000
ENDCHAR
STARTCHAR T
ENCODING 84
SWIDTH 754 0
DWIDTH 18 0
BBX 17 18 1 -1
BITMAP
221111000000000000
FFFFFFFFFFFEEEEE10
DFFFFFFFFFFFFFFF00
CF9005FFFF222BFD00
BF4004FFFF0006FB00
AE0003FFFF0001F900
890003FFFE0000B800
740003FFFE00006600
500002FFFD00002400
000002FFFD00000000
000001FFFC00000000
000001FFFC00000000
000000FFFB00000000
000000FFFB00000000
000001FFFB00000000
00017EFFFFB3000000
017EFFFFFFFFB40000
045555666666673000
ENDCHAR
STARTCHAR U
ENCODING 85
SWIDTH 725 0
DWIDTH 17 0
BBX 21 17 -2 -1
BITMAP
4543210000006BBBBBAA70
05BFFFFEDC8102AFFFE600
0003FFFFB4000009FF2000
0000FFFF50000008FF1000
0001FFFF50000007FF0000
0001FFFF50000007FF0000
0002FFFF40000006FE0000
0002FFFF40000005FD0000
0002FFFF40000005FD0000
0003FFFF40000004FC0000
0002FFFF50000004FB0000
0001FFFF70000006F90000
0000CFFFD000001DF60000
00005FFFFA1002BFE10000
00000AFFFFEBBFFF500000
0000008EFFFFFFD4000000
0000000168997400000000
ENDCHAR
STARTCHAR V
ENCODING 86
SWIDTH 786 0
DWIDTH 19 0
BBX 25 20 -3 -2
BITMAP
00000000000020000000000000
0000000147BC40000000000000
000158CFFFA1005B9642000000
59DFFFFFF6000002CFFFEC9730
01358FFFF600000007FFFC7300
00000AFFFD00000006FD100000
000002FFFF5000000DF5000000
000000AFFFB000006FC0000000
0000003FFFF30001EF40000000
0000000BFFFA0007FC00000000
00000003FFFF201EF400000000
00000000BFFF808FB000000000
000000004FFFE2EF3000000000
000000000BFFFDFA0000000000
0000000004FFFFF30000000000
0000000000CFFFA00000000000
00000000005FFF200000000000
00000000000CF9000000000000
000000000005F2000000000000
00000000000060000000000000
ENDCHAR
STARTCHAR W
ENCODING 87
SWIDTH 1026 0
DWIDTH 25 0
BBX 31 19 -3 -3
BITMAP
00000124567894000027542000000000
5ADEFFFFFFF9100110018EFFDB986420
0048DFFFFA2000079000017DFFFEB620
00002FFFF600000EF2000003FE400000
00000AFFFB00006FFA000009F9000000
000004FFFF2000DFFF40000EF4000000
000000DFFF7005FFFFC0005FD0000000
0000006FFFD00CFFFFF500BF70000000
0000001EFFF44FFFFFFD02FF10000000
00000009FFF9BFF9FFFF77FA00000000
00000002FFFFFFE19FFFEDF400000000
00000000BFFFFF902FFFFFD000000000
000000005FFFFF2009FFFF8000000000
000000000DFFF90002FFFF2000000000
0000000007FFF20000AFFB0000000000
0000000001EFA000003FF50000000000
00000000009F3000000BE00000000000
00000000003B00000004900000000000
00000000000200000000100000000000
ENDCHAR
STARTCHAR X
ENCODING 88
SWIDTH 860 0
DWIDTH 21 0
BBX 25 17 -2 -2
BITMAP
00001345679A94000000000000
039EFFFFFFD602789AABCC9200
000037FFFF60004CFFFFA30000
0000007FFFF30009FF92000000
0000000AFFFD11BFF700000000
00000001CFFFCCFF5000000000
000000002EFFFFE30000000000
0000000004FFFFB00000000000
0000000008FFFFF80000000000
00000001AFFEFFFF5000000000
0000002CFF82EFFFE200000000
000003DFF6004FFFFC10000000
00017EFE300006FFFFA0000000
039EFFFE7000009FFFF8100000
6ABBCCDDEB2002AFFFFFFA4000
0000000000018EFFFFEDDCC920
00000000000232110000000000
ENDCHAR
STARTCHAR Y
ENCODING 89
SWIDTH 848 0
DWIDTH 20 0
BBX 25 18 -3 -2
BITMAP
12334566789940000000000000
38DFFFFFFFC300011000000000
0004AEFFFF300007EFEEDDCA40
000001BFFFD100002AFFFC5000
0000001CFFFB000006FC300000
00000001DFFF90006FD1000000
000000002EFFF706FD20000000
0000000004FFFF9FE300000000
00000000005FFFFE3000000000
000000000007FFF50000000000
000000000002FFF40000000000
000000000003FFF50000000000
000000000003FFF70000000000
000000000004FFF80000000000
000000000004FFFA0000000000
000000000007FFFD4000000000
0000000016DFFFFFFD83000000
000000039AAAAA999999720000
ENDCHAR
STARTCHAR Z
ENCODING 90
SWIDTH 685 0
DWIDTH 16 0
BBX 18 15 0 0
BITMAP
245556677788999AA1
7FFFFFFFFFFFFFFF50
3FFEDCCBBAEFFFF800
0DF6000007FFFFB000
09F400004FFFFD1000
05F10003EFFFF30000
01D0001DFFFF600010
007001CFFFF9000520
00100AFFFFC1000D10
00008FFFFE20006F10
0006FFFFF40001DF00
004FFFFF700007FE00
02EFFFFFA9877EFD00
1DFFFFFFFFFFFFFC00
478888888999999700
ENDCHAR
STARTCHAR bracketleft
ENCODING 91
SWIDTH 380 0
DWIDTH 9 0
BBX 10 23 1 -3
BITMAP
6BAA998873
8FFFFFFA30
8FFFF92000
7FFF500000
7FFF500000
6FFF500000
6FFF400000
5FFF400000
5FFF400000
5FFF400000
4FFF300000
4FFF300000
3FFF300000
3FFF300000
3FFF200000
2FFF200000
2FFF200000
1FFF200000
1FFF100000
0FFF100000
0FFF710000
0FFFFE6000
0CDDDDDC40
ENDCHAR
STARTCHAR backslash
ENCODING 92
SWIDTH 680 0
DWIDTH 16 0
BBX 16 24 0 -2
BITMAP
0001000000000000
005E400000000000
2BFFC00000000000
8FFFF60000000000
1DFFFE1000000000
04FFFF8000000000
00AFFFF200000000
002EFFFB00000000
0006FFFF40000000
0000CFFFD0000000
00003FFFF7000000
000009FFFE100000
000001EFFF900000
0000005FFFF30000
0000000BFFFB0000
00000002EFFF5000
000000007FFFD000
000000000DFFF700
0000000004FFFE20
00000000009FFFA0
00000000001EFFF3
000000000006FFFC
000000000000BFE6
0000000000002910
ENDCHAR
STARTCHAR bracketright
ENCODING 93
SWIDTH 371 0
DWIDTH 9 0
BBX 10 23 -2 -3
BITMAP
1688999AAA
017EFFFFFE
00006DFFFD
000000EFFD
000000EFFC
000000EFFC
000000DFFC
000000DFFB
000000DFFB
000000DFFA
000000CFFA
000000CFFA
000000CFF9
000000CFF9
000000BFF8
000000BFF8
000000BFF7
000000BFF7
000000AFF7
000000AFF6
000004DFF6
0004BFFFF5
029DDDDDD4
ENDCHAR
STARTCHAR asciicircum
ENCODING 94
SWIDTH 671 0
DWIDTH 16 0
BBX 16 16 0 6
BITMAP
0000000100000000
0000000C40000000
0000006FD1000000
000001EFF8000000
000008FFFF300000
00003FFFFFC00000
0000BFFFFFF70000
0005FFFF9FFE2000
001DFFFC08FFB000
008FFFF400BFF500
02FFFFB0001DFE10
0BFFFF300003EF90
4FFFFB0000005FF4
DFFFF300000008FD
48CFA00000000031
0001100000000000
ENDCHAR
STARTCHAR underscore
ENCODING 95
SWIDTH 840 0
DWIDTH 20 0
BBX 21 5 0 -3
BITMAP
999AAAAABBBBCCCCCDDD10
FFFFFFFFFFFFFFFFFFFF10
FFFFFFFFFFFFFFFFFFFF20
FFFFFFFFFFFFFFFFFFFF20
4445556666777788889920
ENDCHAR
STARTCHAR grave
ENCODING 96
SWIDTH 707 0
DWIDTH 17 0
BBX 5 6 7 14
BITMAP
03A500
BFFA00
7FFE10
0DFF50
05FFB0
00CA30
ENDCHAR
STARTCHAR a
ENCODING 97
SWIDTH 572 0
DWIDTH 14 0
BBX 16 15 0 -1
BITMAP
0000024420000000
0018EFFFFD600000
01CFFB89FFF80000
09FF90007FFF2000
0DFFE0001FFF6000
0AFFA0000DFF8000
016622100EFF8000
018EFFFFEFFF7000
1DFFE978BFFF6000
6FFF50005FFF4000
7FFF50007FFF3000
3EFFE878DFFF1000
03CFFFFFFFFF2000
00024554EFFFFA30
0000000087765541
ENDCHAR
STARTCHAR b
ENCODING 98
SWIDTH 723 0
DWIDTH 17 0
BBX 21 22 -3 -4
BITMAP
0002468ACE000000000000
6CFFFFFFFE000000000000
0049EFFFFE000000000000
000008FFFD000000000000
000006FFFD000000000000
000005FFFC000000000000
000005FFFB000000000000
000004FFFB000000000000
000003FFFA000000000000
000003FFF9000000000000
000002FFF9023432000000
000002FFFEEFFFFFE91000
000001FFFFFDCEFFFFE200
000000FFF910005EFFFC00
000000FFF6000005FFFF10
000000EFF5000001FFFF10
000000EFF5000002FFFD00
000000DFF4000009FFF600
000000DFF40026BFFF7000
00002CFFFFFFFFFFC40000
0003EFFFFFFFDB84000000
0039976532100000000000
ENDCHAR
STARTCHAR c
ENCODING 99
SWIDTH 589 0
DWIDTH 14 0
BBX 14 14 0 -2
BITMAP
000016BCDB6000
0006EFFFFFFE40
008FFFA44AFFF3
04FFFA0006FFF8
0CFFF20006FFF8
1FFFD00001AEC2
3FFFB000000000
3FFFC000000003
1FFFF20000002B
0BFFFA000002D9
03FFFFC4227EF3
006FFFFFFFFF80
0004CFFFFFE600
00000367640000
ENDCHAR
STARTCHAR d
ENCODING 100
SWIDTH 713 0
DWIDTH 17 0
BBX 19 23 1 -4
BITMAP
00000017BA9876540000
0000000029EFFFFE0000
00000000001AFFFC0000
000000000008FFFA0000
000000000008FFF80000
000000000009FFF60000
00000000000AFFF40000
00000000000BFFF20000
00000000000CFFF00000
00001454200CFFE00000
003BFFFFFD9EFFC00000
05FFFFFEFFFFFFA00000
3FFFF710139FFF800000
AFFF6000001FFF600000
EFFD0000001FFF400000
FFFA0000002FFF200000
DFFB0000003FFF000000
9FFF4000004FFD000000
1DFFE610005FFB000000
02DFFFECBCFFF9000000
0006CFFFFFFFFA200000
00000023327FFFFDA610
00000000007CA8642000
ENDCHAR
STARTCHAR e
ENCODING 101
SWIDTH 593 0
DWIDTH 14 0
BBX 14 14 0 -2
BITMAP
00000001000000
00006BFFFC7000
002CFFFFFFFC10
01DFFE758FFFB0
09FFF40005FFF5
1EFFB00000CFFA
3FFFC88877CFFE
4FFFFFFFFFFFFF
2FFFC888877766
0CFFD000000011
05FFFB200015A0
008FFFFDBCFD30
0005DFFFFFA200
00000467510000
ENDCHAR
STARTCHAR f
ENCODING 102
SWIDTH 507 0
DWIDTH 12 0
BBX 16 33 -2 -10
BITMAP
000000007DFFB300
0000000BFFFFFF50
0000008FFD21DFE2
000001EFF500AFF7
000004FFF100FFF9
000007FFE000AFF5
000008FFE0000430
000009FFE0000000
000009FFF0000000
000008FFF1000000
000117FFF3111100
00AFFFFFFFFFFC00
00AFFFFFFFFFFC00
001113FFFA111100
000000FFFB000000
000000DFFD000000
000000BFFF000000
0000009FFF100000
0000007FFF300000
0000006FFF500000
0000004FFF600000
0000002FFF800000
0000000FFFA00000
0000000DFFC00000
0000000BFFD00000
00000009FFE00000
04A60008FFE00000
1FFF5008FFD00000
2FFF500BFF900000
0EFF102EFF300000
06FFB7CFF9000000
007FFFFFA0000000
0002797300000000
ENDCHAR
STARTCHAR g
ENCODING 103
SWIDTH 606 0
DWIDTH 15 0
BBX 16 28 0 -12
BITMAP
0000000000001000
00000000003CFE80
0000000002EFFFF8
000000221BFCFFFA
00029EFFFFF2EFF5
005EFFB9DFFB4850
04FFF6001CFFB000
0DFFA00003FFF600
3FFF500000CFFB00
5FFF200000AFFE00
5FFF300000AFFD00
2FFF600000DFFA00
0BFFC00005FFF400
02EFFA103EFF9000
002EFFEDFFF80000
01CFFDCDC8200000
08FFFA4210000000
06FFFFFFFFC71000
008FFFFFFFFFE500
06EFFD757AFFFF40
4FFF9000004FFFD0
CFFE00000008FFF3
EFFB00000005FFF5
DFFC00000006FFF4
9FFF4000001CFFE1
1DFFE72014CFFF50
02BFFFFFFFFFD400
00038BDEEC950000
ENDCHAR
STARTCHAR h
ENCODING 104
SWIDTH 678 0
DWIDTH 16 0
BBX 22 23 -3 -2
BITMAP
0000001467000000000000
358ACEFFFD000000000000
26AEFFFFFC000000000000
00003BFFFC000000000000
000008FFFB000000000000
000008FFFA000000000000
000007FFFA000000000000
000006FFF9000000000000
000006FFF8000000000000
000005FFF8000000000000
000005FFF7000000000000
000004FFFA9AA862000000
000003FFFFFFFFFFA10000
000003FFFC6459FFFD0000
000002FFF400008FFF6000
000002FFF400002FFF8000
000001FFF300001FFF8000
000001FFF200001FFF6000
000000FFF200001FFF3000
000018FFFA20001FFF1000
0006EFFFFFD6003FFE2000
00233221000029FFFFF700
0000000000016778889981
ENDCHAR
STARTCHAR i
ENCODING 105
SWIDTH 393 0
DWIDTH 9 0
BBX 12 19 -1 0
BITMAP
00002CFB2000
0000CFFFB000
0000FFFFD000
0000BFFFA000
00002ADA1000
000000000000
277777776000
029FFFFFC000
00019FFFB000
00003FFFA000
00003FFF9000
00002FFF7000
00001FFF6000
00001FFF5000
00000FFF4000
00000EFF3000
00003FFF3000
0019FFFFF700
03CEEEEFFFB2
ENDCHAR
STARTCHAR j
ENCODING 106
SWIDTH 385 0
DWIDTH 9 0
BBX 11 27 -2 -9
BITMAP
000028810000
0001EFFE1000
0007FFFF6000
0006FFFF5000
0001CFFC0000
000004400000
000013568100
03BEFFFFF300
0005BFFFF400
000006FFF600
000004FFF700
000002FFF900
000000FFFA00
000000DFFC00
000000CFFD00
000000AFFF00
0000008FFF10
0000007FFF30
0000005FFF40
0000003FFF40
19A3002FFF50
8FFD001FFF40
AFFD001FFF10
6FF9006FFB00
0AFFAAFFE300
007EFFFB3000
000022100000
ENDCHAR
STARTCHAR k
ENCODING 107
SWIDTH 749 0
DWIDTH 18 0
BBX 24 23 -3 -3
BITMAP
000000124500000000000000
38CDEFFFFF10000000000000
00147DFFFF00000000000000
000008FFFF00000000000000
000007FFFE04555555555540
000006FFFE018FFFFFFFD600
000005FFFE0002BFFFC50000
000004FFFD0002DFE5000000
000003FFFD004EFC20000000
000002FFFC06FF9000000000
000001FFFC8FFE1000000000
000000FFFFFFFFA000000000
000000EFFFE9FFF400000000
000000DFFD20BFFD00000000
000000CFFA002EFF70000000
000000BFFA0006FFE2000000
000000AFF90000BFFA000000
0000009FF900002EFF400000
000029FFFFB50007FFD10000
0029FFFFFEEDB500EFFFC841
003322110000001BFFFEC852
00000000000004ED96300000
000000000000141000000000
ENDCHAR
STARTCHAR l
ENCODING 108
SWIDTH 369 0
DWIDTH 9 0
BBX 13 23 -3 -2
BITMAP
27888889990000
016CFFFFFF0000
00002AFFFE0000
000005FFFE0000
000004FFFD0000
000004FFFD0000
000003FFFC0000
000002FFFC0000
000002FFFB0000
000001FFFB0000
000000FFFA0000
000000FFFA0000
000000EFF90000
000000DFF80000
000000DFF80000
000000CFF70000
000000BFF70000
000000BFF60000
000000AFF60000
0000009FF50000
000003DFFB2000
00008FFFFFF810
002ABBAA998750
ENDCHAR
STARTCHAR m
ENCODING 109
SWIDTH 990 0
DWIDTH 24 0
BBX 28 13 -2 1
BITMAP
0000000010000000000000000000
001368BDD169A940004797200000
6DFFFFFFEFFFFFF97DFFFFF60000
0049DFFFFFFEFFFFFFFFFFFE1000
00001FFFE3005FFFFC327FFF5000
00000EFF90000AFFF2000DFF7000
00000DFF700007FFB0000BFF8000
00000BFF500006FF90000BFF6000
000009FF400006FF70000BFF5000
00001AFF600006FF60002DFF5000
0029EFFFFC4007FF4029FFFFFA20
003333333236BFFFE72234456672
0000000002787777776100000000
ENDCHAR
STARTCHAR n
ENCODING 110
SWIDTH 643 0
DWIDTH 15 0
BBX 20 13 -2 1
BITMAP
00000000100000000000
001368BDD059A9400000
6DFFFFFFEEFFFFFA0000
0049DFFFFFFEFFFF6000
00001FFFE3005FFFB000
00000EFF900009FFD000
00000DFF700007FFC000
00000BFF500006FFB000
000009FF400006FF9000
00001AFF600006FF7000
0029EFFFFB3007FF5000
003333333236BFFFE710
00000000027877777761
ENDCHAR
STARTCHAR o
ENCODING 111
SWIDTH 705 0
DWIDTH 17 0
BBX 17 13 0 -1
BITMAP
000002467652000000
0007DFFFFFFFC60000
02DFFFEA78CFFFB100
1DFFF8100007FFFC00
6FFF90000000AFFF50
AFFF300000004FFF90
BFFF200000003FFFA0
9FFF400000005FFF80
4FFFC0000000CFFF20
09FFFA10002AFFF700
007FFFFCBDFFFE6000
00028DFFFFEB710000
000000123200000000
ENDCHAR
STARTCHAR p
ENCODING 112
SWIDTH 723 0
DWIDTH 17 0
BBX 21 20 -3 -6
BITMAP
0000001244000000000000
379BCEFFFB000000000000
027CFFFFFB478874000000
000029FFFFFFFFFFE70000
000004FFFFA768DFFFB000
000003FFFB000008FFF800
000002FFFB000000BFFE00
000001FFFB0000007FFF10
000000FFFB0000008FFF10
000000EFFB000001DFFD00
000000DFFC10001AFFF600
000000DFFFFCABEFFF9000
000000CFFEFFFFFFD60000
000000BFFB046663000000
000000AFFC000000000000
0000009FFC000000000000
0000008FFC000000000000
000001AFFE500000000000
00028EFFFFFE8200000000
027CBBAA98877610000000
ENDCHAR
STARTCHAR q
ENCODING 113
SWIDTH 682 0
DWIDTH 16 0
BBX 20 20 0 -6
BITMAP
00000000003788888971
00000000006FFFFFD600
0004ADFFECCFFFD50000
01BFFFFFEFFFFF900000
0CFFF920019FFF800000
6FFF6000006FFF800000
AFFE0000006FFF700000
BFFD0000006FFF600000
9FFF1000006FFF500000
5FFF9000006FFF400000
0AFFFB5347DFFF300000
01AFFFFFFFFFFF200000
0004ADEEC9AFFF100000
00000000007FFF000000
00000000007FFE000000
00000000007FFE000000
00000000008FFD000000
000000005BFFFFB40000
0000005CEFFFFFFFC610
00000000000112234440
ENDCHAR
STARTCHAR r
ENCODING 114
SWIDTH 595 0
DWIDTH 14 0
BBX 17 16 -2 -1
BITMAP
000000002300000000
000147ADFB04ACC910
28CFFFFFFCAFFFFFB0
0048CFFFFFFFFFFFF0
000006FFFF815FFFC0
000005FFFC0004BA20
000003FFF900000000
000001FFF800000000
000000FFF800000000
000000DFF700000000
000000CFF600000000
000000AFF600000000
000003DFFFB6100000
00018FFFFFFFEA4000
005DFECB9764310000
013200000000000000
ENDCHAR
STARTCHAR s
ENCODING 115
SWIDTH 533 0
DWIDTH 13 0
BBX 13 16 0 -1
BITMAP
00000100000210
003AEFFC710A00
06FFFFFFFD6F00
2FFE4015CFFE00
7FFC000009FD00
7FFFA20000AD00
3FFFFFC7200A00
07FFFFFFFA3100
014DFFFFFFF700
09005BFFFFFF50
0F600017EFFFB0
1FF700001DFFB0
3FFFC5214EFF70
4FCFFFFFFFFA00
6A038BDDCA5000
40000000000000
ENDCHAR
STARTCHAR t
ENCODING 116
SWIDTH 422 0
DWIDTH 10 0
BBX 12 23 -1 -1
BITMAP
000001860000
000004FB0000
000008FA0000
00000DF80000
00007FF60000
0018FFF50000
2BEFFFFA7642
3FFFFFFFFFFB
146DFFFBCEF9
000CFFE00000
000DFFD00000
000EFFB00000
000FFFA00000
001FFF800000
003FFF700000
004FFF600000
005FFF400030
006FFF300091
006FFF3002E1
004FFFA24DE0
000DFFFFFF80
0005FFFFFB10
000039BA5000
ENDCHAR
STARTCHAR u
ENCODING 117
SWIDTH 614 0
DWIDTH 15 0
BBX 19 14 -2 -2
BITMAP
6BCCCCC5166666663000
03BFFFF402AFFFFF5000
0008FFF30002BFFF3000
0007FFF100006FFF0000
0007FFF000007FFD0000
0008FFE000008FFA0000
0008FFD000009FF80000
0007FFD000009FF60000
0005FFF10000BFF30000
0001FFFA1019FFF10000
00007FFFFEFFFFE30000
000007EFFFFABFFFD820
000000024410BDB85200
00000000000010000000
ENDCHAR
STARTCHAR v
ENCODING 118
SWIDTH 639 0
DWIDTH 15 0
BBX 21 16 -3 -2
BITMAP
0000000000110000000000
00002469BD910000000000
49CEFFFFE5343100000000
0159EFFF5007EFFEDCBA50
00006FFFB0002AFFFE9300
00000CFFF40001EF810000
000004FFFB0007FD000000
000000AFFF301EF6000000
0000002FFFB08FD0000000
00000008FFF4EF60000000
00000001EFFEFD00000000
000000006FFFF600000000
000000000CFFD000000000
0000000004FF6000000000
0000000000BD0000000000
0000000000260000000000
ENDCHAR
STARTCHAR w
ENCODING 119
SWIDTH 805 0
DWIDTH 19 0
BBX 26 15 -3 -1
BITMAP
00000112334300000000000000
4BEEFFFFFC6006006DEDDCBB83
005BFFFF70001F30017FFE9400
00007FFFB0007FA0004FF20000
00001EFFF300DFF200BFA00000
000008FFFA05FFF903FF300000
000001EFFF2CFFFE1AFC000000
0000008FFFBFEFFF9FF5000000
0000002FFFFF7CFFFFD0000000
00000009FFFE15FFFF60000000
00000002FFF800CFFE00000000
000000009FF2005FF700000000
000000002FA0000DE100000000
000000000A3000059000000000
00000000010000001000000000
ENDCHAR
STARTCHAR x
ENCODING 120
SWIDTH 717 0
DWIDTH 17 0
BBX 23 15 -3 -1
BITMAP
000000000024520000000000
0024679BDFE8200000000000
169CFFFFFC137788999AA500
000005FFFF603AFFFFD71000
0000006FFFF403EFE5000000
00000008FFFE7EFC20000000
00000000AFFFFF9000000000
000000001CFFFB0000000000
0000000009FFFF6000000000
00000000AFFFFFF300000000
0000001CFF83EFFD10000000
00005AEFFB104FFFB0000000
015BCDEFFFD605FFFB620000
0000000012334AFFFFFFD820
000000000007CBA865320000
ENDCHAR
STARTCHAR y
ENCODING 121
SWIDTH 655 0
DWIDTH 16 0
BBX 17 24 -2 -11
BITMAP
197200000000000000
01DFC61019BA875320
002EFFFB406EFFFFF0
0004FFFF5001AFFFE0
0006FFFE00002FFFD0
000AFFFA00002FFFD0
000EFFF600002FFFC0
002FFFF200003FFFC0
001FFFF300003FFFB0
000DFFFC20005FFFA0
0005FFFFFDCEFFFFA0
00006EFFFFFFFFFF90
0000014687525FFF80
0000000000005FFF80
0000000000006FFF70
0000000000006FFF70
0000000000008FFF50
0005DC2000009FFF40
000EFFA00000DFFF00
000FFF800003FFFA00
000CFE10000BFFF300
0004FFD745CFFF7000
00004DFFFFFFE60000
0000016ABBA6100000
ENDCHAR
STARTCHAR z
ENCODING 122
SWIDTH 549 0
DWIDTH 13 0
BBX 14 14 0 -1
BITMAP
24445566677787
8FFFFFFFFFFFF6
5FFDBBAAFFFF90
2FF20008FFFD10
0ED0005FFFF300
0B8003EFFF6000
08401DFFFA0030
0400BFFFD10380
0008FFFF300A80
005FFFF7002F90
02EFFFC2008FA0
1DFFFFFFFEFFB0
5ABCDEFFFFFFC0
00000001234550
ENDCHAR
STARTCHAR braceleft
ENCODING 123
SWIDTH 708 0
DWIDTH 17 0
BBX 13 23 2 -3
BITMAP
0001BAA9998860
0001FFFFFFD600
0000FFFFC50000
0000FFFD000000
0000FFFC000000
0000EFFC000000
0000EFFC000000
0000DFFB000000
0000DFFB000000
0000DFFB000000
0016EFFB000000
6BFFFFFA000000
16AEFFFA000000
0000BFFA000000
0000AFFA000000
0000AFF9000000
00009FF9000000
00009FF9000000
00009FF9000000
00008FF8000000
00008FFC300000
00007FFFFA3000
00006DDDDDD810
ENDCHAR
STARTCHAR bar
ENCODING 124
SWIDTH 304 0
DWIDTH 7 0
BBX 5 23 1 -2
BITMAP
001110
4FFFA0
4FFF90
4FFF90
4FFF90
4FFF90
4FFF90
4FFF80
3FFF80
3FFF80
3FFF80
3FFF70
3FFF70
2FFF70
2FFF70
2FFF70
2FFF60
2FFF60
1FFF60
1FFF60
1FFF50
1FFF50
1CCC40
ENDCHAR
STARTCHAR braceright
ENCODING 125
SWIDTH 517 0
DWIDTH 12 0
BBX 14 23 0 -3
BITMAP
588899AAB10000
06DFFFFFF20000
0005CFFFF10000
00000BFFF10000
00000BFFF00000
00000BFFF00000
00000AFFF00000
00000AFFE00000
00000AFFE00000
00000AFFE00000
000009FFE72000
000009FFFFFC71
000009FFFEB620
000008FFC00000
000008FFB00000
000008FFB00000
000008FFB00000
000007FFA00000
000007FFA00000
000007FF900000
00002BFF900000
002AFFFF900000
17DDDDDD700000
ENDCHAR
STARTCHAR asciitilde
ENCODING 126
SWIDTH 466 0
DWIDTH 11 0
BBX 12 5 0 5
BITMAP
27AA840002A3
FFFFFFEABFF3
FFFFFFFFFFF3
FE99CFFFFFF3
A20002699720
ENDCHAR
STARTCHAR uni00A0
ENCODING 160
SWIDTH 320 0
DWIDTH 8 0
BBX 1 1 0 0
BITMAP
00
ENDCHAR
STARTCHAR exclamdown
ENCODING 161
SWIDTH 305 0
DWIDTH 7 0
BBX 8 21 0 -8
BITMAP
000AFE80
003FFFF4
001EFFE2
00028830
00065300
001FFD00
004FFD00
007FFC00
00AFFB00
00CFFB00
00FFFA00
03FFF900
06FFF900
08FFF800
0BFFF700
0EFFF700
2FFFF600
4FFFF600
7FFFF500
AFFFF400
13456200
ENDCHAR
STARTCHAR cent
ENCODING 162
SWIDTH 417 0
DWIDTH 10 0
BBX 12 21 -1 -3
BITMAP
000002220000
00002FFF1000
00002FFF0000
00001FFE0000
00003FFE4000
001AFFFFFB10
00BFE403EF90
07FF6000FFF0
0DFF1000BFC0
2FFC00000200
3FFC00000000
2FFD00000001
0EFF30000072
08FFC10008C0
01CFFEAADF40
001BFFFFE500
00002FFD1000
00000FFE0000
00001FFF0000
00002FFF0000
000017770000
ENDCHAR
STARTCHAR sterling
ENCODING 163
SWIDTH 658 0
DWIDTH 16 0
BBX 16 19 0 -1
BITMAP
0000000000000001
0000000000000017
0000027BCB8200B6
00007FFFFFFF78F4
0007FFFD9AEFFFF2
001FFFD1001AFFF0
005FFF600000BFD0
558FFF6210002EB0
EFFFFFFFFFF60890
EFFFFFFFFFF50270
7777FFF544410031
1222CFF645520007
EFFFFFFFFFF6000C
FFFFFFFFFFF5006D
1234FFE6678200DC
0006FF90000015FB
001DFFEEEEFFFFFB
00AFFFFFFFFFFFFA
01889AABBCDDEFF9
ENDCHAR
STARTCHAR currency
ENCODING 164
SWIDTH 358 0
DWIDTH 9 0
BBX 9 9 0 4
BITMAP
0860008300
8FFBDCFD20
6FFFFFFE40
0AFA4CF700
0BF507F800
09FE9EF500
5FFFFFFD10
8FA475EE30
0600002200
ENDCHAR
STARTCHAR yen
ENCODING 165
SWIDTH 796 0
DWIDTH 19 0
BBX 23 16 -3 0
BITMAP
000135689A40000000000000
49EFFFFF9100066554433210
00149FFFB000018FFFFFC610
000005FFFA000004FE830000
0000005FFF80002DE3000000
00000006FFF703EE30000000
000000007FFF8EE300000000
0000000007FFFE3000000000
0000000876CFF83320000000
0000001FFFFFFFFFA0000000
00000015559FFA4420000000
0000000DEEFFFFFFA0000000
0000001778CFFEBB70000000
00000000009FFC0000000000
000000027CFFFFD951000000
0000027AAAAAAAAAA9510000
ENDCHAR
STARTCHAR brokenbar
ENCODING 166
SWIDTH 304 0
DWIDTH 7 0
BBX 5 23 1 -2
BITMAP
001110
5FFFA0
4FFF90
4FFF90
4FFF90
4FFF90
4FFF90
4FFF80
3FFF80
276520
000000
000000
000000
154310
2FFF60
2FFF60
2FFF60
2FFF60
2FFF60
1FFF50
1FFF50
1FFF50
1CCC40
ENDCHAR
STARTCHAR section
ENCODING 167
SWIDTH 646 0
DWIDTH 16 0
BBX 14 29 1 -7
BITMAP
00000000000010
0029DFEB600070
05EFFFFFFC2290
3FFE5226DFEA90
BFF500001AFF80
EFF4000000AF80
FFFD2000000C70
CFFFE720000260
5FFFFFFA400010
08FFFFFFFC4000
01DFFFFFFFFA10
0CFFDFFFFFFFA0
8FF9016CFFFFF4
DFF300005EFFF8
FFF7000003FFF8
EFFF910002FFF6
9FFFFF944CFFE1
1DFFFFFFFFFD20
02DFFFFFFFF400
0008FFFFFFFF40
200017DFFFFFE1
67000004CFFFF6
7E30000009FFF8
8FE3000001FFF7
9FFF710006FFF3
BDEFFFCACFFF80
C518EFFFFFD600
A0000355420000
20000000000000
ENDCHAR
STARTCHAR dieresis
ENCODING 168
SWIDTH 708 0
DWIDTH 17 0
BBX 9 4 4 19
BITMAP
05A303A500
1FFC0BFF10
0CF909FD00
0130003100
ENDCHAR
STARTCHAR copyright
ENCODING 169
SWIDTH 700 0
DWIDTH 17 0
BBX 17 16 0 1
BITMAP
000000023210000000
00017CFFFFFB500000
005EFFFDBCEFFC2000
05FFF8200006EFD200
1EFE304CED603EFB00
8FF406FA38F707FF40
CFB02EE005FB01FF90
EF807FA0006300CFB0
FF708F90000000BFC0
DF906FC0000400DFA0
AFD01EF7005A02FF70
4FF505FFEDE209FE10
0BFE3038A7106FF700
01CFF820015BFF9000
0019FFFFFFFFE50000
000028BDDCA5000000
ENDCHAR
STARTCHAR ordfeminine
ENCODING 170
SWIDTH 399 0
DWIDTH 10 0
BBX 12 10 -1 9
BITMAP
004AEEC81000
05FFBBFFB000
0BFF309FF300
07FC106FF500
018BCBCFF500
0CFFCAEFF300
3FFD00BFF200
1EFFBAEFF000
02ADEEFFF920
000002BA9871
ENDCHAR
STARTCHAR guillemotleft
ENCODING 171
SWIDTH 424 0
DWIDTH 10 0
BBX 10 13 0 -1
BITMAP
0000800036
0008F301DC
004FF10AFA
01DFA06FF3
0AFF32EFC0
7FFB0CFF50
BFF72FFF10
4FFD0AFF70
08FF51DFD0
00BFB03FF5
002EF307FC
0004F200BB
0000400013
ENDCHAR
STARTCHAR logicalnot
ENCODING 172
SWIDTH 541 0
DWIDTH 13 0
BBX 15 13 0 1
BITMAP
3000000000001000
7100000000007000
7700000000059000
8D554322100D8000
8FFFFFFFFFEF7000
8FFFFFFFFFFF6000
8FFFFFFFFFFF5000
8B22211115FF4000
8500000001FF3000
6000000000CF2000
1000000000BF3000
000000003CFFE300
0000000012456710
ENDCHAR
STARTCHAR sfthyphen
ENCODING 173
SWIDTH 530 0
DWIDTH 13 0
BBX 13 5 0 6
BITMAP
66544321100000
EFFFFFFFFFED90
EFFFFFFFFFFFA0
FFFFFFFFFFFF90
BBBAA998877630
ENDCHAR
STARTCHAR registered
ENCODING 174
SWIDTH 700 0
DWIDTH 17 0
BBX 17 16 0 0
BITMAP
000049CEEEC8200000
003CFFFFEFFFF91000
03EFFB510039FFC100
1DFF500020005FFA00
7FF637AED6DE78FF30
BFC015CFFFFFD1FF80
EF80006FE22940CFB0
FF70004FB00000BFC0
EF80002FB00000CFB0
BFC0001FA00001FF80
6FF3007FFB5107FF20
0CFD158765324FF900
02EFD5000028FFB000
002CFFECCEFFF80000
00005BEFFFC8200000
000000011000000000
ENDCHAR
STARTCHAR macron
ENCODING 175
SWIDTH 705 0
DWIDTH 17 0
BBX 7 4 6 17
BITMAP
78888860
EFFFFFB0
EFFFFFB0
99999970
ENDCHAR
STARTCHAR degree
ENCODING 176
SWIDTH 364 0
DWIDTH 9 0
BBX 7 8 1 10
BITMAP
00120000
06EFD400
5FFFFE20
AF70AF70
BF609F70
5FFDFE20
07FFE400
00020000
ENDCHAR
STARTCHAR plusminus
ENCODING 177
SWIDTH 607 0
DWIDTH 15 0
BBX 15 16 0 0
BITMAP
0000022110000000
00000AFFF3000000
000009FFF2000000
010008FFF1000000
6FFFEEFFFBA98710
6FFFFFFFFFFFFF00
7FFFFFFFFFFFFF00
6CCCBDFFE9998700
000007FFD0000000
000006FFC0000000
000005FFB0000000
0211013430000000
3FFFFEDDCBAA9700
3FFFFFFFFFFFFD00
3FFFFFFFFFFFFC00
3CCBBAAA99887500
ENDCHAR
STARTCHAR twosuperior
ENCODING 178
SWIDTH 440 0
DWIDTH 11 0
BBX 11 14 0 8
BITMAP
130001000000
0E37DFEB3000
0DFFFFFFF400
0BFE525FFE10
0AF3000CFF30
08A0001EFF10
075002DFF910
05118FFF9530
015EFFA31E20
08FFD400AF10
6FFF8678FF00
CFFFFFFFFD00
CDDEFFFFFC00
000000112200
ENDCHAR
STARTCHAR threesuperior
ENCODING 179
SWIDTH 442 0
DWIDTH 11 0
BBX 11 15 0 7
BITMAP
200000000000
570035300000
2F7DFFFE6000
0EFFECFFF700
0BFA103FFE00
08C0000EFF00
0532549FFB00
0104FFFFF600
0413BDFFFD10
0860005FFF40
0CE2002FFF40
1FFE86CFFD10
4FCFFFFFD200
7705ABA60000
300000000000
ENDCHAR
STARTCHAR acute
ENCODING 180
SWIDTH 694 0
DWIDTH 17 0
BBX 5 7 7 17
BITMAP
021000
0BE820
1FFF40
6FFB00
BFF300
AFA000
021000
ENDCHAR
STARTCHAR mu
ENCODING 181
SWIDTH 1000 0
DWIDTH 24 0
BBX 19 19 0 -7
BITMAP
4BCCCCC7156666664000
02AFFFF7018EFFFF8000
0006FFF500019FFF5000
0004FFF300004FFF3000
0004FFF200005FFF1000
0004FFF100006FFD0000
0003FFF000006FFB0000
0003FFF000007FF80000
0003FFF300009FF60000
0003FFFB2017FFF30000
0002FFFFFEFFFFF50000
0002FFFFFFFBAFFFE830
0002FFF244109EB85300
0002FFF0000010000000
0001FFF0000000000000
0001FFF0000000000000
0001FFF0000000000000
0001FFF0000000000000
00002340000000000000
ENDCHAR
STARTCHAR paragraph
ENCODING 182
SWIDTH 782 0
DWIDTH 19 0
BBX 21 17 -1 -1
BITMAP
000001468899AABBBCC930
0028DFFFFFFFFFFFFA3000
06FFFFDADFFBBFFA200000
3FFFA300BFF13FF5000000
6FFD0000BFF13FF5000000
3FFF4000BFF04FF5000000
06FFFB62BFF04FF5000000
0029EFFFFFFFFFF4000000
0000048AEFFFFFF4000000
00000000CFD16FF4000000
00000000CFD06FF4000000
00000000CFC07FF4000000
00000000CFB08FF3000000
00000000DFB5DFF5000000
00000000DFFFFFFFB30000
0000038DFFFFFFFFFFA200
0015ABBA99887665443200
ENDCHAR
STARTCHAR periodcentered
ENCODING 183
SWIDTH 226 0
DWIDTH 5 0
BBX 6 5 0 7
BITMAP
001000
2CFE60
AFFFF1
9FFFF1
1AED50
ENDCHAR
STARTCHAR cedilla
ENCODING 184
SWIDTH 780 0
DWIDTH 19 0
BBX 7 8 6 -5
BITMAP
00AF2000
05FC1000
1EFFE400
157BFE00
0200DF20
1DC8FE00
2CFFF600
01563000
ENDCHAR
STARTCHAR onesuperior
ENCODING 185
SWIDTH 390 0
DWIDTH 9 0
BBX 9 13 0 8
BITMAP
000037A200
37BEFFF200
37BEFFF100
0003FFF100
0002FFF000
0002FFF000
0001FFF000
0001FFE000
0000FFE000
0000FFD000
0002EFE100
007EFFFC20
0488888970
ENDCHAR
STARTCHAR ordmasculine
ENCODING 186
SWIDTH 449 0
DWIDTH 11 0
BBX 12 9 -1 10
BITMAP
000034541000
007EFFFFFB30
0AFFD758EFE3
4FFD10005FFC
6FF800001FFF
5FFA00002FFE
1EFF5001BFF7
03EFFDCEFF90
0016ACDB8300
ENDCHAR
STARTCHAR guillemotright
ENCODING 187
SWIDTH 415 0
DWIDTH 10 0
BBX 10 13 0 -1
BITMAP
3600071000
9E201EB000
7FC00DF700
1EF906FF30
09FF51EFD1
02FFE28FFA
00DFF54FFE
04FFC0AFF7
0BFE22FFB0
2FF608FD10
9FA01EF400
8D100D8000
1300040000
ENDCHAR
STARTCHAR onequarter
ENCODING 188
SWIDTH 918 0
DWIDTH 22 0
BBX 22 26 0 -4
BITMAP
0000000000000000010000
000037A2000000002E7000
37BEFFF200000000AFFB00
37BEFFF100000003FFF600
0003FFF10000000CFFC000
0002FFF00000006FFF3000
0002FFF0000001EFF80000
0001FFF0000009FFD10000
0001FFE000003FFF400000
0000FFE00000BFFA000000
0000FFD00005FFE2003300
0002EFE1001DFF6001D400
007EFFFC208FFC000CF300
0488888972FFF300AFF300
000000000AFF8008FFF300
000000004FFD105FFFF211
00000000DFF503FFFFF282
00000007FFA02EFACFF3E1
0000001EFE21DFE6DFFBF1
0000009FF70BFFFFFFFFF0
000003FFC0377666CFF8F0
00000CFF30000000AFF0B0
00006FF900000016DFF620
0001EFD1000039EFFFFFC4
00007E5000001111111100
0000010000000000000000
ENDCHAR
STARTCHAR onehalf
ENCODING 189
SWIDTH 1007 0
DWIDTH 24 0
BBX 24 26 0 -4
BITMAP
000000000000000001000000
000037A2000000002E700000
37BEFFF200000000AFFB0000
37BEFFF100000003FFF60000
0003FFF10000000CFFC00000
0002FFF00000006FFF300000
0002FFF0000001EFF8000000
0001FFF0000009FFD1000000
0001FFE000003FFF40000000
0000FFE00000BFFA00000000
0000FFD00005FFE200000000
0002EFE1001DFF6000000000
007EFFFC208FFC2000000000
0488888972FFF35907CDB600
000000000AFF803FEFFFFFB0
000000004FFD102FFD65BFF8
00000000DFF5000FE1002FFC
00000007FFA0000E60004FFB
0000001EFE20000C1003DFF6
0000009FF7000007019FFF87
000003FFC00000026EFFA34C
00000CFF3000000AFFC300DB
00006FF90000009FFE4449FA
0001EFD1000001FFFFFFFFF8
00007E50000004FFFFFFFFF7
000001000000000112334452
ENDCHAR
STARTCHAR threequarters
ENCODING 190
SWIDTH 936 0
DWIDTH 22 0
BBX 23 26 0 -4
BITMAP
200000000000000001000000
570035300000000009B20000
2F7DFFFE600000003FFE3000
0EFFECFFF7000000CFFC0000
0BFA103FFE000006FFF30000
08C0000EFF00001EFF900000
0532549FFC00008FFE100000
0104FFFFF60002FFF5000000
0413BDFFFD100BFFB0000000
0860005FFF405FFE20000000
0CE2002FFF40DFF700060000
1FFE86CFFD17FFC0008A0000
4FCFFFFFD22EFF3006FA0000
7705ABA600AFF9004FFA0000
3000000004FFE102EFF90000
000000000CFF501DFFF90200
000000006FFB00BFFFF92800
00000001EFF209FE8FF89800
00000009FF707FF98FFCF700
0000003FFD05FFFFFFFFF700
000000CFF40676668FF9E600
000006FF900000003FF66600
00001EFE10000003AFFA2200
00008FF5000016CFFFFFE810
00003CB00000111111110000
000000100000000000000000
ENDCHAR
STARTCHAR questiondown
ENCODING 191
SWIDTH 568 0
DWIDTH 14 0
BBX 15 22 -1 -8
BITMAP
0000000002ACA300
000000000BFFFF30
000000000CFFFF50
0000000002CFFB10
0000000000022000
000000000CA61000
000000004FFF1000
00000000BFFE0000
00001467FFFC0000
0019EFFFFFFA0000
01DFFFFDBDF80000
0AFFFD4000220000
1FFFF30000000000
3FFFB00000000000
2FFFA00000000040
0EFFD00000000380
08FFFA0000002D50
00CFFFC51016EF20
0008FFFFFFFFFD00
000016ACDCBAFA00
000000000000A700
0000000000002300
ENDCHAR
STARTCHAR Agrave
ENCODING 192
SWIDTH 788 0
DWIDTH 19 0
BBX 28 30 -4 -6
BITMAP
000000000003A600000000000000
0000000000AFFB00000000000000
00000000006FFF10000000000000
00000000000CFF60000000000000
000000000004FFB0000000000000
000000000000BA40000000000000
0000000000000000000000000000
0000001000000000000000000000
0000006DEEDCCB80000000000000
000000006DFFFFF3000000000000
00000000006DFFFA000000000000
000000000005FFFF300000000000
00000000000CFFFFA00000000000
00000000005FEFFFF20000000000
0000000000DF6BFFFA0000000000
0000000006FD04FFFF2000000000
000000000DF500BFFF9000000000
000000007FC0004FFFF200000000
00000001EFEDDCBFFFF900000000
00000007FFFFFFFFFFFF20000000
0000001EF9877665EFFF90000000
0000008FB00000008FFFF1000000
000004EF300000002FFFF8000000
0016DFFFA10000000AFFFE100000
29EFFFFFFE50000003FFFF900000
0123456789A6000000CFFFFEA510
000000000000000002DFFFFFFD92
00000000000000001DFFFD952000
0000000000000001DD9510000000
0000000000000003100000000000
ENDCHAR
STARTCHAR Aacute
ENCODING 193
SWIDTH 788 0
DWIDTH 19 0
BBX 28 30 -4 -6
BITMAP
0000000000000300000000000000
0000000000001ED6100000000000
0000000000005FFE100000000000
000000000000AFF7000000000000
000000000001FFD0000000000000
000000000002CF60000000000000
0000000000000300000000000000
0000001000000000000000000000
0000006DEEDCCB80000000000000
000000006DFFFFF3000000000000
00000000006DFFFA000000000000
000000000005FFFF300000000000
00000000000CFFFFA00000000000
00000000005FEFFFF20000000000
0000000000DF6BFFFA0000000000
0000000006FD04FFFF2000000000
000000000DF500BFFF9000000000
000000007FC0004FFFF200000000
00000001EFEDDCBFFFF900000000
00000007FFFFFFFFFFFF20000000
0000001EF9877665EFFF90000000
0000008FB00000008FFFF1000000
000004EF300000002FFFF8000000
0016DFFFA10000000AFFFE100000
29EFFFFFFE50000003FFFF900000
0123456789A6000000CFFFFEA510
000000000000000002DFFFFFFD92
00000000000000001DFFFD952000
0000000000000001DD9510000000
0000000000000003100000000000
ENDCHAR
STARTCHAR Acircumflex
ENCODING 194
SWIDTH 788 0
DWIDTH 19 0
BBX 28 30 -4 -6
BITMAP
0000000000000200000000000000
0000000000005F60000000000000
000000000003EFF3000000000000
00000000001DFFFD100000000000
0000000000BFFBFFB00000000000
0000000007FD403CF80000000000
0000000001610000610000000000
0000001000000000000000000000
0000006DEEDCCB80000000000000
000000006DFFFFF3000000000000
00000000006DFFFA000000000000
000000000005FFFF300000000000
00000000000CFFFFA00000000000
00000000005FEFFFF20000000000
0000000000DF6BFFFA0000000000
0000000006FD04FFFF2000000000
000000000DF500BFFF9000000000
000000007FC0004FFFF200000000
00000001EFEDDCBFFFF900000000
00000007FFFFFFFFFFFF20000000
0000001EF9877665EFFF90000000
0000008FB00000008FFFF1000000
000004EF300000002FFFF8000000
0016DFFFA10000000AFFFE100000
29EFFFFFFE50000003FFFF900000
0123456789A6000000CFFFFEA510
000000000000000002DFFFFFFD92
00000000000000001DFFFD952000
0000000000000001DD9510000000
0000000000000003100000000000
ENDCHAR
STARTCHAR Atilde
ENCODING 195
SWIDTH 788 0
DWIDTH 19 0
BBX 28 29 -4 -6
BITMAP
0000000000000000010000000000
00000000008DEA42A50000000000
0000000000FFFFFFF50000000000
0000000000FEEFFFF50000000000
000000000091049A710000000000
0000000000000000000000000000
0000001000000000000000000000
0000006DEEDCCB80000000000000
000000006DFFFFF3000000000000
00000000006DFFFA000000000000
000000000005FFFF300000000000
00000000000CFFFFA00000000000
00000000005FEFFFF20000000000
0000000000DF6BFFFA0000000000
0000000006FD04FFFF2000000000
000000000DF500BFFF9000000000
000000007FC0004FFFF200000000
00000001EFEDDCBFFFF900000000
00000007FFFFFFFFFFFF20000000
0000001EF9877665EFFF90000000
0000008FB00000008FFFF1000000
000004EF300000002FFFF8000000
0016DFFFA10000000AFFFE100000
29EFFFFFFE50000003FFFF900000
0123456789A6000000CFFFFEA510
000000000000000002DFFFFFFD92
00000000000000001DFFFD952000
0000000000000001DD9510000000
0000000000000003100000000000
ENDCHAR
STARTCHAR Adieresis
ENCODING 196
SWIDTH 788 0
DWIDTH 19 0
BBX 28 27 -4 -6
BITMAP
00000000006A303A500000000000
0000000001FFB0CFF10000000000
0000000000DF809FC00000000000
0000000000130003100000000000
0000001000000000000000000000
0000006DEEDCCB80000000000000
000000006DFFFFF3000000000000
00000000006DFFFA000000000000
000000000005FFFF300000000000
00000000000CFFFFA00000000000
00000000005FEFFFF20000000000
0000000000DF6BFFFA0000000000
0000000006FD04FFFF2000000000
000000000DF500BFFF9000000000
000000007FC0004FFFF200000000
00000001EFEDDCBFFFF900000000
00000007FFFFFFFFFFFF20000000
0000001EF9877665EFFF90000000
0000008FB00000008FFFF1000000
000004EF300000002FFFF8000000
0016DFFFA10000000AFFFE100000
29EFFFFFFE50000003FFFF900000
0123456789A6000000CFFFFEA510
000000000000000002DFFFFFFD92
00000000000000001DFFFD952000
0000000000000001DD9510000000
0000000000000003100000000000
ENDCHAR
STARTCHAR Aring
ENCODING 197
SWIDTH 788 0
DWIDTH 19 0
BBX 28 27 -4 -6
BITMAP
0000000000001520000000000000
000000000003EFF6000000000000
00000000000CE5CF100000000000
00000000000DC09F200000000000
000000100007FFFB000000000000
0000006DEEDCFFD1000000000000
000000006DFFFFF3000000000000
00000000006DFFFA000000000000
000000000005FFFF200000000000
00000000000CFFFFA00000000000
00000000005FEFFFF20000000000
0000000000DF6BFFF90000000000
0000000006FD04FFFF2000000000
000000000DF500BFFF9000000000
000000007FC0004FFFF200000000
00000001EFEDDCBFFFF900000000
00000007FFFFFFFFFFFF20000000
0000001EF9877665EFFF90000000
0000008FB00000008FFFF1000000
000004EF300000002FFFF8000000
0016DFFFA10000000AFFFE100000
29EFFFFFFE50000003FFFF900000
0123456789A6000000CFFFFEA510
000000000000000002DFFFFFFD92
00000000000000001DFFFD952000
0000000000000001DD9510000000
0000000000000003100000000000
ENDCHAR
STARTCHAR AE
ENCODING 198
SWIDTH 1019 0
DWIDTH 24 0
BBX 30 20 -6 -2
BITMAP
000000000000000000000001223443
000000005677899ABCCDEEFFFFFFF7
000000003CFFFFFFFFFFFFFFFFEFF7
00000000006EFFFFFFFFA542102FF6
000000000002AFFEFFFF6000000BF6
0000000000007FF5EFFF60006005F5
000000000002EFA0EFFF6003A000D4
00000000000AFE10DFFF500AA00074
00000000005FF500DFFF502FA00012
0000000001DFA000CFFF96BF900000
0000000008FE1000CFFFFFFF900040
000000003FF72111CFFFFFFF900090
00000000CFFFFFFFFFFF419F8001D0
00000006FFFFFFFFFFFF301D8005D0
0000001EF7544433BFFF3005700AD0
0000009FA0000000AFFF3000301EE0
000028FE10000005DFFF978888AFE0
005BFFFFB10039EFFFFFFFFFFFFFE0
5CEFFFFFFE56888888877777777760
000012345672000000000000000000
ENDCHAR
STARTCHAR Ccedilla
ENCODING 199
SWIDTH 766 0
DWIDTH 18 0
BBX 19 27 0 -9
BITMAP
00000000000000000410
00000003577510002D00
000028EFFFFFFA30BB00
0005EFFFFFFFFFEBF900
006FFFFE84237EFFF700
03FFFFC2000001CFF400
0BFFFE200000001EF200
2FFFF80000000005E000
6FFFF30000000000A000
7FFFF000000000002000
7FFFF000000000000000
6FFFF100000000000000
3FFFF400000000003000
0EFFF900000000019000
07FFFF3000000007D000
00CFFFD30000004FF100
002DFFFF942249FFF400
0002CFFFFFFFFFFAB700
000005CFFFFFFC501900
00000002FC5410000300
0000000AFA1000000000
0000005FFFE300000000
000000135AFB00000000
0000000401FD00000000
0000005FCDFA00000000
0000002DFFD200000000
00000000430000000000
ENDCHAR
STARTCHAR Egrave
ENCODING 200
SWIDTH 781 0
DWIDTH 19 0
BBX 20 26 -2 -1
BITMAP
00000000016B00000000
000000003EFF30000000
000000000DFF80000000
0000000005FFD0000000
0000000000CFF4000000
00000000004D71000000
00000000000000000000
00000000000000002344
0012345789ABCDEFFFFB
4AFFFFFFFFFFFFFFEFFB
0016AEFFFF6532102FFA
000005FFFF0000000AF9
000005FFFF00006003F9
000004FFFE00059000B8
000004FFFE000D800047
000003FFFE006F800004
000003FFFE67DF800000
000002FFFFFFFF700041
000002FFFFFFFF700091
000001FFFC12CF6000E1
000001FFFC003F6004F1
000000FFFC00086009F2
000000FFFB0000300EF2
000017FFFD7788889FF2
004AFFFFFFFFFFFFFFF2
16888888877777777761
ENDCHAR
STARTCHAR Eacute
ENCODING 201
SWIDTH 781 0
DWIDTH 19 0
BBX 20 25 -2 -1
BITMAP
00000000000220000000
000000000008FA300000
00000000000DFF700000
00000000003FFD100000
00000000008FF6000000
00000000007ED0000000
00000000000120002344
0012345789ABCDEFFFFB
4AFFFFFFFFFFFFFFEFFB
0016AEFFFF6532102FFA
000005FFFF0000000AF9
000005FFFF00006003F9
000004FFFE00059000B8
000004FFFE000D800047
000003FFFE006F800004
000003FFFE67DF800000
000002FFFFFFFF700041
000002FFFFFFFF700091
000001FFFC12CF6000E1
000001FFFC003F6004F1
000000FFFC00086009F2
000000FFFB0000300EF2
000017FFFD7788889FF2
004AFFFFFFFFFFFFFFF2
16888888877777777761
ENDCHAR
STARTCHAR Ecircumflex
ENCODING 202
SWIDTH 781 0
DWIDTH 19 0
BBX 20 26 -2 -1
BITMAP
00000000001100000000
0000000000BD10000000
0000000009FFB0000000
000000006FFFF8000000
00000003FFEDFF500000
0000000DF9108FE10000
00000004400002500000
00000000000000002344
0012345789ABCDEFFFFB
4AFFFFFFFFFFFFFFEFFB
0016AEFFFF6532102FFA
000005FFFF0000000AF9
000005FFFF00006003F9
000004FFFE00059000B8
000004FFFE000D800047
000003FFFE006F800004
000003FFFE67DF800000
000002FFFFFFFF700041
000002FFFFFFFF700091
000001FFFC12CF6000E1
000001FFFC003F6004F1
000000FFFC00086009F2
000000FFFB0000300EF2
000017FFFD7788889FF2
004AFFFFFFFFFFFFFFF2
16888888877777777761
ENDCHAR
STARTCHAR Edieresis
ENCODING 203
SWIDTH 781 0
DWIDTH 19 0
BBX 20 23 -2 -1
BITMAP
000000006A303A500000
00000001FFB0CFF10000
00000000DF809FC00000
00000000130003100000
00000000000000002344
0012345789ABCDEFFFFB
4AFFFFFFFFFFFFFFEFFB
0016AEFFFF6532102FFA
000005FFFF0000000AF9
000005FFFF00006003F9
000004FFFE00059000B8
000004FFFE000D800047
000003FFFE006F800004
000003FFFE67DF800000
000002FFFFFFFF700041
000002FFFFFFFF700091
000001FFFC12CF6000E1
000001FFFC003F6004F1
000000FFFC00086009F2
000000FFFB0000300EF2
000017FFFD7788889FF2
004AFFFFFFFFFFFFFFF2
16888888877777777761
ENDCHAR
STARTCHAR Igrave
ENCODING 204
SWIDTH 445 0
DWIDTH 11 0
BBX 15 28 -2 -3
BITMAP
0000017A00000000
00004EFF20000000
00001EFF70000000
000007FFC0000000
000000DFF2000000
0000005D61000000
0000000000000000
0000000000000000
4888777777766620
029EFFFFFFFE9300
00016DFFFE610000
000008FFFC000000
000007FFFC000000
000006FFFB000000
000006FFFB000000
000005FFFA000000
000005FFFA000000
000004FFFA000000
000003FFF9000000
000003FFF9000000
000002FFF8000000
000002FFF8000000
000001FFF8000000
000000FFF7000000
000000FFF7000000
00005BFFFE820000
028EFFFFFFFFB500
0111111111111110
ENDCHAR
STARTCHAR Iacute
ENCODING 205
SWIDTH 445 0
DWIDTH 11 0
BBX 15 27 -2 -3
BITMAP
0000000130000000
00000005FB400000
0000000BFFA00000
0000001FFF200000
0000006FF8000000
0000005EE1000000
0000000030000000
4888777777766620
029EFFFFFFFE9300
00016DFFFE610000
000008FFFC000000
000007FFFC000000
000006FFFB000000
000006FFFB000000
000005FFFA000000
000005FFFA000000
000004FFFA000000
000003FFF9000000
000003FFF9000000
000002FFF8000000
000002FFF8000000
000001FFF8000000
000000FFF7000000
000000FFF7000000
00005BFFFE820000
028EFFFFFFFFB500
0111111111111110
ENDCHAR
STARTCHAR Icircumflex
ENCODING 206
SWIDTH 445 0
DWIDTH 11 0
BBX 15 28 -2 -3
BITMAP
0000000100000000
0000003E90000000
000001DFF6000000
00000BFFFE300000
00008FFCEFD10000
0004FE602BFA0000
0000610000520000
0000000000000000
4888777777766620
029EFFFFFFFE9300
00016DFFFE610000
000008FFFC000000
000007FFFC000000
000006FFFB000000
000006FFFB000000
000005FFFA000000
000005FFFA000000
000004FFFA000000
000003FFF9000000
000003FFF9000000
000002FFF8000000
000002FFF8000000
000001FFF8000000
000000FFF7000000
000000FFF7000000
00005BFFFE820000
028EFFFFFFFFB500
0111111111111110
ENDCHAR
STARTCHAR Idieresis
ENCODING 207
SWIDTH 445 0
DWIDTH 11 0
BBX 15 25 -2 -3
BITMAP
00004A4029700000
0000DFE09FF30000
0000AFB06FE10000
0000030003100000
0000000000000000
4888777777766620
029EFFFFFFFE9300
00016DFFFE610000
000008FFFC000000
000007FFFC000000
000006FFFB000000
000006FFFB000000
000005FFFA000000
000005FFFA000000
000004FFFA000000
000003FFF9000000
000003FFF9000000
000002FFF8000000
000002FFF8000000
000001FFF8000000
000000FFF7000000
000000FFF7000000
00005BFFFE820000
028EFFFFFFFFB500
0111111111111110
ENDCHAR
STARTCHAR Eth
ENCODING 208
SWIDTH 1000 0
DWIDTH 24 0
BBX 23 18 0 -1
BITMAP
111100000000000000000000
28EFFFFFFFFFFFEDA5100000
0006CFFFFFFFFFFFFFE60000
000004BFFFFA4458EFFFA100
0000004FFFF700001BFFFA00
0000002FFFF7000001EFFF40
0000001FFFF60000008FFFA0
0011100FFFF50000004FFFE0
009FFFFFFFFDBBA2002FFFF0
009FFFFFFFFFFFF2002FFFF0
009EDDDEFFFBBAA0004FFFE0
0000000AFFF20000006FFFA0
00000009FFF1000000AFFF60
00000009FFF0000004FFFD00
00000008FFF000016EFFE300
0000007EFFFEEEEFFFFD4000
00006DFFFFFFFFFFEC610000
0029A9987655443200000000
ENDCHAR
STARTCHAR Ntilde
ENCODING 209
SWIDTH 840 0
DWIDTH 20 0
BBX 25 25 -2 -1
BITMAP
00000000000000010000000000
000000003BEC725B0000000000
000000007FFFFFFC0000000000
000000007FDFFFFC0000000000
0000000064027A940000000000
00000000000000000000000000
10000000000344455566667720
3AFFFFEEED216CFFFFFFFFA200
0028EFFFFFC10039EFFF920000
000019FFFFFA00001CFA000000
000004FFFFFF70000AF9000000
000004FFFFFFF4000AF9000000
000004FF9FFFFE200AF9000000
000004FF1BFFFFD10AF8000000
000004FF11DFFFFA0AF8000000
000004FF102EFFFF7AF8000000
000004FF2003FFFFFDF8000000
000004FF20005FFFFFF7000000
000004FF200007FFFFF7000000
000004FF3000009FFFF7000000
000004FF3000000BFFF6000000
00004CFFC7100001DFF6000000
006DFFFFFFFA50002EF6000000
5BCCDDDDDDDDDC7103F5000000
00000000000000000055000000
ENDCHAR
STARTCHAR Ograve
ENCODING 210
SWIDTH 808 0
DWIDTH 19 0
BBX 19 24 0 -1
BITMAP
0000000017A000000000
00000004EFF200000000
00000001EFF700000000
000000007FFC00000000
000000000DFF30000000
0000000005D610000000
00000000000000000000
00000000000000000000
00000158ABCA84000000
0002AFFFFFFFFFD50000
005EFFFFC99CFFFF9000
03FFFFD300005FFFF800
0CFFFD10000007FFFF30
3FFFF500000001EFFF90
6FFFF100000000AFFFC0
8FFFE0000000008FFFE0
7FFFF0000000009FFFD0
4FFFF300000000CFFFA0
0EFFF800000003FFFF50
06FFFF3000001CFFFB00
009FFFE72126DFFFC100
0007EFFFFFFFFFF91000
000028DFFFFFD9300000
00000001343100000000
ENDCHAR
STARTCHAR Oacute
ENCODING 211
SWIDTH 808 0
DWIDTH 19 0
BBX 19 24 0 -1
BITMAP
00000000003000000000
0000000004FB40000000
000000000AFFB0000000
000000000EFF30000000
000000005FF900000000
000000005DF200000000
00000000003000000000
00000000000000000000
00000158ABCA84000000
0002AFFFFFFFFFD50000
005EFFFFC99CFFFF9000
03FFFFD300005FFFF800
0CFFFD10000007FFFF30
3FFFF500000001EFFF90
6FFFF100000000AFFFC0
8FFFE0000000008FFFE0
7FFFF0000000009FFFD0
4FFFF300000000CFFFA0
0EFFF800000003FFFF50
06FFFF3000001CFFFB00
009FFFE72126DFFFC100
0007EFFFFFFFFFF91000
000028DFFFFFD9300000
00000001343100000000
ENDCHAR
STARTCHAR Ocircumflex
ENCODING 212
SWIDTH 808 0
DWIDTH 19 0
BBX 19 24 0 -1
BITMAP
00000000010000000000
000000002EA000000000
00000001DFF700000000
0000000AFFFF40000000
0000007FFCEFE2000000
000003FE602BFB000000
00000062000053000000
00000000000000000000
00000158ABCA84000000
0002AFFFFFFFFFD50000
005EFFFFC99CFFFF9000
03FFFFD300005FFFF800
0CFFFD10000007FFFF30
3FFFF500000001EFFF90
6FFFF100000000AFFFC0
8FFFE0000000008FFFE0
7FFFF0000000009FFFD0
4FFFF300000000CFFFA0
0EFFF800000003FFFF50
06FFFF3000001CFFFB00
009FFFE72126DFFFC100
0007EFFFFFFFFFF91000
000028DFFFFFD9300000
00000001343100000000
ENDCHAR
STARTCHAR Otilde
ENCODING 213
SWIDTH 808 0
DWIDTH 19 0
BBX 19 23 0 -1
BITMAP
00000000000001000000
0000003BEC725B000000
0000007FFFFFFC000000
0000007FDFFFFC000000
00000064027A94000000
00000000000000000000
00000000000000000000
00000158ABCA84000000
0002AFFFFFFFFFD50000
005EFFFFC99CFFFF9000
03FFFFD300005FFFF800
0CFFFD10000007FFFF30
3FFFF500000001EFFF90
6FFFF100000000AFFFC0
8FFFE0000000008FFFE0
7FFFF0000000009FFFD0
4FFFF300000000CFFFA0
0EFFF800000003FFFF50
06FFFF3000001CFFFB00
009FFFE72126DFFFC100
0007EFFFFFFFFFF91000
000028DFFFFFD9300000
00000001343100000000
ENDCHAR
STARTCHAR Odieresis
ENCODING 214
SWIDTH 808 0
DWIDTH 19 0
BBX 19 21 0 -1
BITMAP
0000003A501970000000
000000CFF08FF4000000
0000009FC05FE2000000
00000003100310000000
00000000000000000000
00000158ABCA84000000
0002AFFFFFFFFFD50000
005EFFFFC99CFFFF9000
03FFFFD300005FFFF800
0CFFFD10000007FFFF30
3FFFF500000001EFFF90
6FFFF100000000AFFFC0
8FFFE0000000008FFFE0
7FFFF0000000009FFFD0
4FFFF300000000CFFFA0
0EFFF800000003FFFF50
06FFFF3000001CFFFB00
009FFFE72126DFFFC100
0007EFFFFFFFFFF91000
000028DFFFFFD9300000
00000001343100000000
ENDCHAR
STARTCHAR multiply
ENCODING 215
SWIDTH 556 0
DWIDTH 13 0
BBX 13 14 0 1
BITMAP
00250000004000
02DF500009F500
3EFFF4008FFF40
5FFFFE38FFFFD0
05FFFFEFFFFD20
004EFFFFFFC100
0004EFFFFB1000
0006FFFFFC1000
005FFFFFFFB000
04FFFF9DFFF900
4FFFF702DFFF80
3EFF60001CFF70
04E5000001C500
00100000000000
ENDCHAR
STARTCHAR Oslash
ENCODING 216
SWIDTH 808 0
DWIDTH 19 0
BBX 19 21 0 -3
BITMAP
00000000000002000000
0000000000000DD40000
0000000000006FFF8000
00000158ABBAEFFF4000
0002AFFFFFFFFFFB0000
004EFFFFC9AFFFFF9000
03FFFFD3009FFFFFF800
0CFFFD1003FFFEFFFF30
3FFFF5000BFFF3EFFF90
6FFFF1004FFF70AFFFC0
8FFFE000CFFC008FFFE0
7FFFF006FFF3009FFFD0
5FFFF31DFF9000CFFFA0
0EFFF97FFD1002FFFF50
06FFFFEFF5001CFFFB00
008FFFFFB126DFFFC100
0006EFFFFFFFFFF91000
0000AFFFFFFFD9300000
0003FFC2443100000000
0008FF30000000000000
00005700000000000000
ENDCHAR
STARTCHAR Ugrave
ENCODING 217
SWIDTH 725 0
DWIDTH 17 0
BBX 21 24 -2 -1
BITMAP
0000000002880000000000
000000006FFE0000000000
000000002FFF5000000000
0000000009FFA000000000
0000000002EFE100000000
00000000008C5000000000
0000000000000000000000
4543210000006BBBBBAA70
05BFFFFEDC8102AFFFE600
0003FFFFB4000009FF2000
0000FFFF50000008FF1000
0001FFFF50000007FF0000
0001FFFF50000007FF0000
0002FFFF40000006FE0000
0002FFFF40000005FD0000
0002FFFF40000005FD0000
0003FFFF40000004FC0000
0002FFFF50000004FB0000
0001FFFF70000006F90000
0000CFFFD000001DF60000
00005FFFFA1002BFE10000
00000AFFFFEBBFFF500000
0000008EFFFFFFD4000000
0000000168997400000000
ENDCHAR
STARTCHAR Uacute
ENCODING 218
SWIDTH 725 0
DWIDTH 17 0
BBX 21 25 -2 -1
BITMAP
0000000000120000000000
00000000008FA300000000
0000000000DFF800000000
0000000003FFE100000000
0000000008FF6000000000
0000000007ED0000000000
0000000000120000000000
0000000000000000000000
4543210000006BBBBBAA70
05BFFFFEDC8102AFFFE600
0003FFFFB4000009FF2000
0000FFFF50000008FF1000
0001FFFF50000007FF0000
0001FFFF50000007FF0000
0002FFFF40000006FE0000
0002FFFF40000005FD0000
0002FFFF40000005FD0000
0003FFFF40000004FC0000
0002FFFF50000004FB0000
0001FFFF70000006F90000
0000CFFFD000001DF60000
00005FFFFA1002BFE10000
00000AFFFFEBBFFF500000
0000008EFFFFFFD4000000
0000000168997400000000
ENDCHAR
STARTCHAR Ucircumflex
ENCODING 219
SWIDTH 725 0
DWIDTH 17 0
BBX 21 25 -2 -1
BITMAP
0000000000110000000000
0000000000BD1000000000
0000000009FFB000000000
000000006FFFF800000000
00000003FFEDFF50000000
0000000DF9108FE1000000
0000000440000250000000
0000000000000000000000
4543210000006BBBBBAA70
05BFFFFEDC8102AFFFE600
0003FFFFB4000009FF2000
0000FFFF50000008FF1000
0001FFFF50000007FF0000
0001FFFF50000007FF0000
0002FFFF40000006FE0000
0002FFFF40000005FD0000
0002FFFF40000005FD0000
0003FFFF40000004FC0000
0002FFFF50000004FB0000
0001FFFF70000006F90000
0000CFFFD000001DF60000
00005FFFFA1002BFE10000
00000AFFFFEBBFFF500000
0000008EFFFFFFD4000000
0000000168997400000000
ENDCHAR
STARTCHAR Udieresis
ENCODING 220
SWIDTH 725 0
DWIDTH 17 0
BBX 21 22 -2 -1
BITMAP
000000006A303A50000000
00000001FFB0CFF1000000
00000000DF809FC0000000
0000000013000310000000
0000000000000000000000
4543210000006BBBBBAA70
05BFFFFEDC8102AFFFE600
0003FFFFB4000009FF2000
0000FFFF50000008FF1000
0001FFFF50000007FF0000
0001FFFF50000007FF0000
0002FFFF40000006FE0000
0002FFFF40000005FD0000
0002FFFF40000005FD0000
0003FFFF40000004FC0000
0002FFFF50000004FB0000
0001FFFF70000006F90000
0000CFFFD000001DF60000
00005FFFFA1002BFE10000
00000AFFFFEBBFFF500000
0000008EFFFFFFD4000000
0000000168997400000000
ENDCHAR
STARTCHAR Yacute
ENCODING 221
SWIDTH 848 0
DWIDTH 20 0
BBX 25 25 -3 -2
BITMAP
00000000000000210000000000
000000000000009F9200000000
00000000000000EFF600000000
00000000000004FFD000000000
00000000000009FF5000000000
00000000000008EC0000000000
00000000000000120000000000
12334566789940000000000000
38DFFFFFFFC300011000000000
0004AEFFFF300007EFEEDDCA40
000001BFFFD100002AFFFC5000
0000001CFFFB000006FC300000
00000001DFFF90006FD1000000
000000002EFFF706FD20000000
0000000004FFFF9FE300000000
00000000005FFFFE3000000000
000000000007FFF50000000000
000000000002FFF40000000000
000000000003FFF50000000000
000000000003FFF70000000000
000000000004FFF80000000000
000000000004FFFA0000000000
000000000007FFFD4000000000
0000000016DFFFFFFD83000000
000000039AAAAA999999720000
ENDCHAR
STARTCHAR Thorn
ENCODING 222
SWIDTH 745 0
DWIDTH 18 0
BBX 21 17 -2 -1
BITMAP
4555443332221100000000
05CFFFFFFFFFB500000000
0004BFFFFD820000000000
000009FFF5210000000000
000009FFFFFFFDB8400000
000009FFFFFFFFFFFE6000
000008FFF511236BFFF800
000008FFF40000006FFF10
000008FFF40000004FFF10
000007FFF5000016EFF800
000007FFFA78ACFFFD6000
000007FFFFFFFFC9400000
000007FFFD753100000000
000006FFFB000000000000
00005DFFFE610000000000
004CFFFFFFFE8200000000
17BBBAAAAA999950000000
ENDCHAR
STARTCHAR germandbls
ENCODING 223
SWIDTH 986 0
DWIDTH 24 0
BBX 26 33 -2 -10
BITMAP
00000000000232000000000000
0000000018EFFFE81000000000
00000002DFFFEFFFD300000000
0000000CFFB2006FFE20000000
0000005FFD100007FF90000000
000000BFF7000001FFF1000000
000001FFF2000000BFF5000000
000003FFF1000000AFF6000000
000005FFF1000000AFF6000000
000006FFF2000001EFF3000000
000116FFF4000009FFC0000000
00AFFFFFF500003FFF50000000
00AFFFFFF70000CFFC00000000
001112FFF90005FFF400000000
000000EFFB000AFFD000000000
000000CFFD000CFFC000000000
000000AFFE000CFFF400000000
0000008FFF1008FFFF81000000
0000006FFF3001DFFFFFA50000
0000004FFF50002CFFFFFFD700
0000002FFF7002207EFFFFFFC1
0000000FFF8003B0016DFFFFF9
0000000DFFA004F900005CFFFD
0000000CFFC005FFA10000EFFC
0000000AFFE006FFFE8559FFF5
00000009FFE007F9FFFFFFFE60
05A70008FFE00880169AA86100
1FFF5009FFC006000000000000
2FFF500BFF9000000000000000
0EFF102FFF3000000000000000
06FFC7DFF90000000000000000
006EFFFF900000000000000000
00016872000000000000000000
ENDCHAR
STARTCHAR agrave
ENCODING 224
SWIDTH 572 0
DWIDTH 14 0
BBX 16 22 0 -1
BITMAP
0000000288000000
0000006FFE000000
0000002FFF500000
00000009FFA00000
00000002EFE10000
000000008C500000
0000000000000000
0000024420000000
0018EFFFFD600000
01CFFB89FFF80000
09FF90007FFF2000
0DFFE0001FFF6000
0AFFA0000DFF8000
016622100EFF8000
018EFFFFEFFF7000
1DFFE978BFFF6000
6FFF50005FFF4000
7FFF50007FFF3000
3EFFE878DFFF1000
03CFFFFFFFFF2000
00024554EFFFFA30
0000000087765541
ENDCHAR
STARTCHAR aacute
ENCODING 225
SWIDTH 572 0
DWIDTH 14 0
BBX 16 22 0 -1
BITMAP
0000000030000000
00000003FC500000
00000008FFC00000
0000000DFF400000
0000003FFB000000
0000004DF3000000
0000000030000000
0000024420000000
0018EFFFFD600000
01CFFB89FFF80000
09FF90007FFF2000
0DFFE0001FFF6000
0AFFA0000DFF8000
016622100EFF8000
018EFFFFEFFF7000
1DFFE978BFFF6000
6FFF50005FFF4000
7FFF50007FFF3000
3EFFE878DFFF1000
03CFFFFFFFFF2000
00024554EFFFFA30
0000000087765541
ENDCHAR
STARTCHAR acircumflex
ENCODING 226
SWIDTH 572 0
DWIDTH 14 0
BBX 16 23 0 -1
BITMAP
0000000110000000
0000001EB0000000
000000CFF8000000
000009FFFF500000
00006FFCEFE20000
0002FE701AFC0000
0000620000430000
0000000000000000
0000024420000000
0018EFFFFD600000
01CFFB89FFF80000
09FF90007FFF2000
0DFFE0001FFF6000
0AFFA0000DFF8000
016622100EFF8000
018EFFFFEFFF7000
1DFFE978BFFF6000
6FFF50005FFF4000
7FFF50007FFF3000
3EFFE878DFFF1000
03CFFFFFFFFF2000
00024554EFFFFA30
0000000087765541
ENDCHAR
STARTCHAR atilde
ENCODING 227
SWIDTH 572 0
DWIDTH 14 0
BBX 16 21 0 -1
BITMAP
0000000000010000
00004CEC61690000
00009FFFFFFA0000
00009FDFFFFA0000
000073028B930000
0000000000000000
0000024420000000
0018EFFFFD600000
01CFFB89FFF80000
09FF90007FFF2000
0DFFE0001FFF6000
0AFFA0000DFF8000
016622100EFF8000
018EFFFFEFFF7000
1DFFE978BFFF6000
6FFF50005FFF4000
7FFF50007FFF3000
3EFFE878DFFF1000
03CFFFFFFFFF2000
00024554EFFFFA30
0000000087765541
ENDCHAR
STARTCHAR adieresis
ENCODING 228
SWIDTH 572 0
DWIDTH 14 0
BBX 16 19 0 -1
BITMAP
000079204A400000
0003FF90EFD00000
0001EF60BFA00000
0000130003000000
0000024420000000
0018EFFFFD600000
01CFFB89FFF80000
09FF90007FFF2000
0DFFE0001FFF6000
0AFFA0000DFF8000
016622100EFF8000
018EFFFFEFFF7000
1DFFE978BFFF6000
6FFF50005FFF4000
7FFF50007FFF3000
3EFFE878DFFF1000
03CFFFFFFFFF2000
00024554EFFFFA30
0000000087765541
ENDCHAR
STARTCHAR aring
ENCODING 229
SWIDTH 572 0
DWIDTH 14 0
BBX 16 19 0 -1
BITMAP
0000006DD5000000
000004FDDF300000
000008F23F700000
000005FBBF400000
000002CFF8000000
0017DFFFFD600000
01CFFB89FFF80000
09FF90007FFF2000
0DFFE0001FFF6000
0AFFA0000DFF8000
016622100EFF8000
018EFFFFEFFF7000
1DFFE978BFFF6000
6FFF50005FFF4000
7FFF50007FFF3000
3EFFE878DFFF1000
03CFFFFFFFFF2000
00024554EFFFFA30
0000000087765541
ENDCHAR
STARTCHAR ae
ENCODING 230
SWIDTH 1022 0
DWIDTH 25 0
BBX 25 15 0 -1
BITMAP
00001343100000000000000000
003BFFFFFA2000015664100000
06FFD98CFFE203BFFFFFE70000
1FFF2001DFFA4FFFEBCFFFA000
4FFF60007FFEEFFB1005FFF600
2FFF30005FFFFFF200009FFD00
037322106FFFFFE776669FFF20
04BFFFFFEFFFFFFFFFFFFFFF40
6FFFC779EFFFFFE66666555510
DFFD0000CFFFFFF40000001300
EFFC0000EFFBCFFF832259C100
AFFFB789FFF91BFFFFFFFC2000
08EFFFFFFFFA0049CDCA400000
00035558FFFFD7100000000000
00000004876654300000000000
ENDCHAR
STARTCHAR ccedilla
ENCODING 231
SWIDTH 589 0
DWIDTH 14 0
BBX 14 21 0 -9
BITMAP
000016BCDB6000
0006EFFFFFFE40
008FFFA44AFFF3
04FFFA0006FFF8
0CFFF20006FFF8
1FFFD00001AEC2
3FFFB000000000
3FFFC000000003
1FFFF20000002B
0BFFFA000002D9
04FFFFC4227EF3
007FFFFFFFFF80
0004CFFFFFE600
000003DF740000
000005FD300000
00001EFFF70000
00000248FF1000
00000320CF3000
00002DEBFE1000
000009FFE50000
00000024100000
ENDCHAR
STARTCHAR egrave
ENCODING 232
SWIDTH 593 0
DWIDTH 14 0
BBX 14 21 0 -2
BITMAP
00000003A60000
000000AFFB0000
0000006FFF1000
0000000CFF6000
00000004FFB000
00000000BA4000
00000000000000
00000001000000
00006BFFFC7000
002CFFFFFFFC10
01DFFE758FFFB0
09FFF40005FFF5
1EFFB00000CFFA
3FFFC88877CFFE
4FFFFFFFFFFFFF
2FFFC888877766
0CFFD000000011
05FFFB200015A0
008FFFFDBCFD30
0005DFFFFFA200
00000467510000
ENDCHAR
STARTCHAR eacute
ENCODING 233
SWIDTH 593 0
DWIDTH 14 0
BBX 14 21 0 -2
BITMAP
00000001200000
00000007FA3000
0000000CFF9000
0000002FFE1000
0000007FF70000
0000006EE10000
00000000200000
00000001000000
00006BFFFC7000
002CFFFFFFFC10
01DFFE758FFFB0
09FFF40005FFF5
1EFFB00000CFFA
3FFFC88877CFFE
4FFFFFFFFFFFFF
2FFFC888877766
0CFFD000000011
05FFFB200015A0
008FFFFDBCFD30
0005DFFFFFA200
00000467510000
ENDCHAR
STARTCHAR ecircumflex
ENCODING 234
SWIDTH 593 0
DWIDTH 14 0
BBX 14 21 0 -2
BITMAP
00000001100000
0000001EB00000
000000CFF80000
000009FFFF5000
00006FFCEFE200
0002FE701AFC00
00006200004300
00000001000000
00006BFFFC7000
002CFFFFFFFC10
01DFFE758FFFB0
09FFF40005FFF5
1EFFB00000CFFA
3FFFC88877CFFE
4FFFFFFFFFFFFF
2FFFC888877766
0CFFD000000011
05FFFB200015A0
008FFFFDBCFD30
0005DFFFFFA200
00000467510000
ENDCHAR
STARTCHAR edieresis
ENCODING 235
SWIDTH 593 0
DWIDTH 14 0
BBX 14 18 0 -2
BITMAP
00001980079200
00007FF53FF900
00004FF31EF600
00000220013000
00000001000000
00006BFFFC7000
002CFFFFFFFC10
01DFFE758FFFB0
09FFF40005FFF5
1EFFB00000CFFA
3FFFC88877CFFE
4FFFFFFFFFFFFF
2FFFC888877766
0CFFD000000011
05FFFB200015A0
008FFFFDBCFD30
0005DFFFFFA200
00000467510000
ENDCHAR
STARTCHAR igrave
ENCODING 236
SWIDTH 393 0
DWIDTH 9 0
BBX 12 21 -1 0
BITMAP
000017A00000
0004EFF20000
0001EFF70000
00007FFC0000
00000DFF2000
000005D61000
000000000000
000000000000
277777776000
029FFFFFC000
00019FFFB000
00003FFFA000
00003FFF9000
00002FFF7000
00001FFF6000
00001FFF5000
00000FFF4000
00000EFF3000
00003FFF3000
0019FFFFF700
03CEEEEFFFB2
ENDCHAR
STARTCHAR iacute
ENCODING 237
SWIDTH 393 0
DWIDTH 9 0
BBX 12 21 -1 0
BITMAP
000000210000
0000009F9200
000000EFF600
000004FFD000
000009FF5000
000008EC0000
000000120000
000000000000
277777776000
029FFFFFC000
00019FFFB000
00003FFFA000
00003FFF9000
00002FFF7000
00001FFF6000
00001FFF5000
00000FFF4000
00000EFF3000
00003FFF3000
0019FFFFF700
03CEEEEFFFB2
ENDCHAR
STARTCHAR icircumflex
ENCODING 238
SWIDTH 393 0
DWIDTH 9 0
BBX 12 22 -1 0
BITMAP
000000200000
000006F50000
00003FFE3000
0001DFFFD100
000BFFBFFB00
008FD304DF70
001600001610
000000000000
000000000000
277777776000
029FFFFFC000
00019FFFB000
00003FFFA000
00003FFF9000
00002FFF7000
00001FFF6000
00001FFF5000
00000FFF4000
00000EFF3000
00003FFF3000
0019FFFFF700
03CEEEEFFFB2
ENDCHAR
STARTCHAR idieresis
ENCODING 239
SWIDTH 393 0
DWIDTH 9 0
BBX 12 18 -1 0
BITMAP
000296018810
000AFF26FF60
0007FE13FF40
000031002200
000000000000
277777776000
029FFFFFC000
00019FFFB000
00003FFFA000
00003FFF9000
00002FFF7000
00001FFF6000
00001FFF5000
00000FFF4000
00000EFF3000
00003FFF3000
0019FFFFF700
03CEEEEFFFB2
ENDCHAR
STARTCHAR eth
ENCODING 240
SWIDTH 672 0
DWIDTH 16 0
BBX 18 23 -1 -3
BITMAP
000230000000000000
00004C81000005D300
000001BE8002BFFC00
00000008FD8EFFB200
00000000AFFFF70000
00000019FFFF900000
000005EFFFEFF60000
00001DFFE53FFF4000
000003EB200AFFD100
000000300002FFF900
000000145542BFFF20
00028DFFFFFFFFFF70
005EFFFDA9BFFFFFC0
05FFFE500003DFFFF0
0DFFF40000004FFFF2
2FFFB00000000CFFF2
3FFFA00000000AFFF1
1FFFC00000000CFFC0
0BFFF40000003FFF70
03EFFD400004DFFC00
003DFFFB9ADFFFB100
00017CFFFFFFB50000
000000134430000000
ENDCHAR
STARTCHAR ntilde
ENCODING 241
SWIDTH 643 0
DWIDTH 15 0
BBX 20 19 -2 1
BITMAP
00000000000000100000
00000007DEA429600000
0000000EFFFFFF600000
0000000EEDFFFF600000
000000091049B7100000
00000000000000000000
00000000100000000000
001368BDD059A9400000
6DFFFFFFEEFFFFFA0000
0049DFFFFFFEFFFF6000
00001FFFE3005FFFB000
00000EFF900009FFD000
00000DFF700007FFC000
00000BFF500006FFB000
000009FF400006FF9000
00001AFF600006FF7000
0029EFFFFB3007FF5000
003333333236BFFFE710
00000000027877777761
ENDCHAR
STARTCHAR ograve
ENCODING 242
SWIDTH 705 0
DWIDTH 17 0
BBX 17 20 0 -1
BITMAP
000000016B00000000
0000003EFF30000000
0000000DFF80000000
00000005FFD0000000
00000000CFF4000000
000000004D71000000
000000000000000000
000002467652000000
0007DFFFFFFFC60000
02DFFFEA78CFFFB100
1DFFF8100007FFFC00
6FFF90000000AFFF50
AFFF300000004FFF90
BFFF200000003FFFA0
9FFF400000005FFF80
4FFFC0000000CFFF20
09FFFA10002AFFF700
007FFFFCBDFFFE6000
00028DFFFFEB710000
000000123200000000
ENDCHAR
STARTCHAR oacute
ENCODING 243
SWIDTH 705 0
DWIDTH 17 0
BBX 17 20 0 -1
BITMAP
000000002100000000
00000000BE82000000
00000001FFF4000000
00000006FFB0000000
0000000BFF30000000
0000000AFA00000000
000000002100000000
000002467652000000
0007DFFFFFFFC60000
02DFFFEA78CFFFB100
1DFFF8100007FFFC00
6FFF90000000AFFF50
AFFF300000004FFF90
BFFF200000003FFFA0
9FFF400000005FFF80
4FFFC0000000CFFF20
09FFFA10002AFFF700
007FFFFCBDFFFE6000
00028DFFFFEB710000
000000123200000000
ENDCHAR
STARTCHAR ocircumflex
ENCODING 244
SWIDTH 705 0
DWIDTH 17 0
BBX 17 21 0 -1
BITMAP
000000001000000000
00000002EB00000000
0000000CFF70000000
0000009FFFF4000000
000006FFCEFE200000
00002FE701AFC00000
000006200005300000
000000000000000000
000002467652000000
0007DFFFFFFFC60000
02DFFFEA78CFFFB100
1DFFF8100007FFFC00
6FFF90000000AFFF50
AFFF300000004FFF90
BFFF200000003FFFA0
9FFF400000005FFF80
4FFFC0000000CFFF20
09FFFA10002AFFF700
007FFFFCBDFFFE6000
00028DFFFFEB710000
000000123200000000
ENDCHAR
STARTCHAR otilde
ENCODING 245
SWIDTH 705 0
DWIDTH 17 0
BBX 17 19 0 -1
BITMAP
000000000000100000
000005CEC616900000
00000AFFFFFF900000
00000AFDFFFF900000
0000072038B9200000
000000000000000000
000002467652000000
0007DFFFFFFFC60000
02DFFFEA78CFFFB100
1DFFF8100007FFFC00
6FFF90000000AFFF50
AFFF300000004FFF90
BFFF200000003FFFA0
9FFF400000005FFF80
4FFFC0000000CFFF20
09FFFA10002AFFF700
007FFFFCBDFFFE6000
00028DFFFFEB710000
000000123200000000
ENDCHAR
STARTCHAR odieresis
ENCODING 246
SWIDTH 705 0
DWIDTH 17 0
BBX 17 18 0 -1
BITMAP
000001970089100000
000008FF44FF800000
000005FE22EF500000
000000310022000000
000000000000000000
000002467652000000
0007DFFFFFFFC60000
02DFFFEA78CFFFB100
1DFFF8100007FFFC00
6FFF90000000AFFF50
AFFF300000004FFF90
BFFF200000003FFFA0
9FFF400000005FFF80
4FFFC0000000CFFF20
09FFFA10002AFFF700
007FFFFCBDFFFE6000
00028DFFFFEB710000
000000123200000000
ENDCHAR
STARTCHAR divide
ENCODING 247
SWIDTH 504 0
DWIDTH 12 0
BBX 12 15 0 -1
BITMAP
000017A60000
0000CFFF8000
0000FFFFC000
00009FFF7000
000003520000
798776543321
BFFFFFFFFFFD
BFFFFFFFFFFC
BEDDCCCBBAA7
000000000000
00004BC70000
0002FFFF7000
0003FFFF9000
0000AFFD2000
000001300000
ENDCHAR
STARTCHAR oslash
ENCODING 248
SWIDTH 705 0
DWIDTH 17 0
BBX 17 18 0 -3
BITMAP
000000000000500000
000000000007FA2000
00000000002EFFA000
0000024677BFFF2000
0007DFFFFFFFFA0000
02DFFFEA7EFFFFB100
1DFFF8106FFFFFFB00
6FFF9001EFF9AFFF50
AFFF3008FFE14FFF80
BFFF202FFF603FFFA0
9FFF40AFFB005FFF80
3FFFB4FFF300CFFF20
08FFFEFF802AFFF700
007FFFFFCDFFFE6000
0003FFFFFFEB710000
0008FFA23200000000
001FFE200000000000
0003C7000000000000
ENDCHAR
STARTCHAR ugrave
ENCODING 249
SWIDTH 614 0
DWIDTH 15 0
BBX 19 22 -2 -2
BITMAP
000000006C0000000000
0000002EFF4000000000
0000000CFFA000000000
00000004FFE100000000
00000000BFF500000000
000000003D7100000000
00000000000000000000
00000000000000000000
6BCCCCC5166666663000
03BFFFF402AFFFFF5000
0008FFF30002BFFF3000
0007FFF100006FFF0000
0007FFF000007FFD0000
0008FFE000008FFA0000
0008FFD000009FF80000
0007FFD000009FF60000
0005FFF10000BFF30000
0001FFFA1019FFF10000
00007FFFFEFFFFE30000
000007EFFFFABFFFD820
000000024410BDB85200
00000000000010000000
ENDCHAR
STARTCHAR uacute
ENCODING 250
SWIDTH 614 0
DWIDTH 15 0
BBX 19 22 -2 -2
BITMAP
00000000021000000000
000000000AE920000000
000000001EFF50000000
000000005FFC00000000
00000000AFF400000000
000000009FB000000000
00000000012000000000
00000000000000000000
6BCCCCC5166666663000
03BFFFF402AFFFFF5000
0008FFF30002BFFF3000
0007FFF100006FFF0000
0007FFF000007FFD0000
0008FFE000008FFA0000
0008FFD000009FF80000
0007FFD000009FF60000
0005FFF10000BFF30000
0001FFFA1019FFF10000
00007FFFFEFFFFE30000
000007EFFFFABFFFD820
000000024410BDB85200
00000000000010000000
ENDCHAR
STARTCHAR ucircumflex
ENCODING 251
SWIDTH 614 0
DWIDTH 15 0
BBX 19 22 -2 -2
BITMAP
00000000010000000000
000000004F8000000000
00000002EFF500000000
0000000CFFFE20000000
0000009FFCFFC1000000
000005FD503CF9000000
00000061000062000000
00000000000000000000
6BCCCCC5166666663000
03BFFFF402AFFFFF5000
0008FFF30002BFFF3000
0007FFF100006FFF0000
0007FFF000007FFD0000
0008FFE000008FFA0000
0008FFD000009FF80000
0007FFD000009FF60000
0005FFF10000BFF30000
0001FFFA1019FFF10000
00007FFFFEFFFFE30000
000007EFFFFABFFFD820
000000024410BDB85200
00000000000010000000
ENDCHAR
STARTCHAR udieresis
ENCODING 252
SWIDTH 614 0
DWIDTH 15 0
BBX 19 19 -2 -2
BITMAP
00000079204A40000000
000003FF90EFD0000000
000001EF60BFA0000000
00000013000300000000
00000000000000000000
6BCCCCC5166666663000
03BFFFF402AFFFFF5000
0008FFF30002BFFF3000
0007FFF100006FFF0000
0007FFF000007FFD0000
0008FFE000008FFA0000
0008FFD000009FF80000
0007FFD000009FF60000
0005FFF10000BFF30000
0001FFFA1019FFF10000
00007FFFFEFFFFE30000
000007EFFFFABFFFD820
000000024410BDB85200
00000000000010000000
ENDCHAR
STARTCHAR yacute
ENCODING 253
SWIDTH 655 0
DWIDTH 16 0
BBX 17 31 -2 -11
BITMAP
000000000210000000
000000000AE9200000
000000001EFF500000
000000005FFC000000
00000000AFF4000000
000000009FB0000000
000000000120000000
197200000000000000
01DFC61019BA875320
002EFFFB406EFFFFF0
0004FFFF5001AFFFE0
0006FFFE00002FFFD0
000AFFFA00002FFFD0
000EFFF600002FFFC0
002FFFF200003FFFC0
001FFFF300003FFFB0
000DFFFC20005FFFA0
0005FFFFFDCEFFFFA0
00006EFFFFFFFFFF90
0000014687525FFF80
0000000000005FFF80
0000000000006FFF70
0000000000006FFF70
0000000000008FFF50
0005DC2000009FFF40
000EFFA00000DFFF00
000FFF800003FFFA00
000CFE10000BFFF300
0004FFD745CFFF7000
00004DFFFFFFE60000
0000016ABBA6100000
ENDCHAR
STARTCHAR thorn
ENCODING 254
SWIDTH 734 0
DWIDTH 18 0
BBX 20 27 -2 -10
BITMAP
58888888830000000000
04BFFFFFF60000000000
0003BFFFF60000000000
000009FFF60000000000
000009FFF60000000000
000008FFF60000000000
000008FFF60000000000
000008FFF60000000000
000007FFF60000000000
000007FFFA9BCCA62000
000006FFFFFFFFFFF800
000006FFFB5235BFFFB0
000005FFF7000008FFF5
000005FFF7000000DFFB
000005FFF7000000BFFC
000004FFF7000000DFFC
000004FFF7000004FFF8
000003FFFB30016EFFE1
000003FFFFFFEFFFFE30
000002FFFCDFFFFE8100
000002FFF70123200000
000002FFF70000000000
000001FFF80000000000
000001FFF80000000000
000003FFFB2000000000
0004BFFFFFFB50000000
05BDDCBBA99886000000
ENDCHAR
STARTCHAR ydieresis
ENCODING 255
SWIDTH 655 0
DWIDTH 16 0
BBX 17 29 -2 -11
BITMAP
00000079204A400000
000003FF90EFD00000
000001EF60BFA00000
000000130003000000
000000000000000000
197200000000000000
01DFC61019BA875320
002EFFFB406EFFFFF0
0004FFFF5001AFFFE0
0006FFFE00002FFFD0
000AFFFA00002FFFD0
000EFFF600002FFFC0
002FFFF200003FFFC0
001FFFF300003FFFB0
000DFFFC20005FFFA0
0005FFFFFDCEFFFFA0
00006EFFFFFFFFFF90
0000014687525FFF80
0000000000005FFF80
0000000000006FFF70
0000000000006FFF70
0000000000008FFF50
0005DC2000009FFF40
000EFFA00000DFFF00
000FFF800003FFFA00
000CFE10000BFFF300
0004FFD745CFFF7000
00004DFFFFFFE60000
0000016ABBA6100000
ENDCHAR
STARTCHAR dotlessi
ENCODING 305
SWIDTH 393 0
DWIDTH 9 0
BBX 12 13 -1 0
BITMAP
277777776000
029FFFFFC000
00019FFFB000
00003FFFA000
00003FFF9000
00002FFF7000
00001FFF6000
00001FFF5000
00000FFF4000
00000EFF3000
00003FFF3000
0019FFFFF700
03CEEEEFFFB2
ENDCHAR
STARTCHAR Lslash
ENCODING 321
SWIDTH 713 0
DWIDTH 17 0
BBX 19 19 -2 0
BITMAP
4ADDDDDDDDDDDC710000
0038EFFFFFFD71000000
000008FFFF6000000000
000005FFFF3000000000
000004FFFF3000000000
000003FFFF3580000000
000002FFFFDFF3000000
000001FFFFFFFA000000
000017FFFFFFD7000020
0017EFFFFFB400000080
00AFFFFFFF10000001D0
003FFDEFFF10000006E0
000840CFFF1000000CE0
000000CFFF1000003FE0
000000BFFF1000009FE0
000000AFFF000000EFE0
000017EFFFDDCCBCFFE0
0017EFFFFFFFFFFFFFE0
05ABA998776554332110
ENDCHAR
STARTCHAR lslash
ENCODING 322
SWIDTH 365 0
DWIDTH 9 0
BBX 14 23 -3 -2
BITMAP
27888889980000
016CFFFFFC0000
00003BFFFC0000
000007FFFB0000
000006FFFB0000
000006FFFA0000
000005FFFA0000
000004FFF95B80
000004FFFFFFD0
000006FFFFFFA1
0017DFFFFFA300
01EFFFFFF70000
00AFFFFFF60000
004FB3FFF60000
000300EFF50000
000000EFF50000
000000DFF40000
000000DFF30000
000000CFF30000
000000BFF20000
000003EFFA1000
00019FFFFFE600
002ABBAA988730
ENDCHAR
STARTCHAR OE
ENCODING 338
SWIDTH 1195 0
DWIDTH 29 0
BBX 28 19 0 -1
BITMAP
0000000000000000000000001343
000000000012345689ABCDEFFFFB
0000000039EFFFFFFFFFFFFFEFFA
0000000000038DFFFFC543100EFA
00000367863000DFFFA0000008F9
0018EFFFFFFD60DFFFA0006001F8
02DFFFC76AFFFADFFFA000C000A8
0CFFF600006FFFFFFF9006D00037
5FFF8000000AFFFFFF900DD00004
AFFF10000004FFFFFFB69FD00000
BFFE00000002FFFFFFFFFFD00031
AFFF10000003FFFFFFFFFFC00081
7FFF40000006FFFFFF716FC000C1
2EFFB000001DFFFFFF700BC002F2
05FFFB2004CFFDBFFF6002B007F2
005EFFFEFFFFB28FFF6000300CF2
00016BEFED9405CFFFA778888FF2
000000000028EFFFFFFFFFFFFFF2
0000000005888888877777777761
ENDCHAR
STARTCHAR oe
ENCODING 339
SWIDTH 1087 0
DWIDTH 26 0
BBX 26 13 0 -2
BITMAP
00027BDEDC8300002688730000
009FFFFEFFFFA14CFFFFFFB200
0AFFF92005EFFDFFFFCCFFFE30
5FFF7000004FFFFFC2003DFFD1
9FFD0000000BFFFF300005FFF6
BFFA00000009FFFE433333FFFB
AFFC0000000AFFFFFFFFFFFFFC
6FFF3000001EFFFECBBBBAAAA8
0CFFC20002BFFFFE1000000010
01CFFEA9BFFFDFFFC300001590
0005BFFFFFC607FFFFCAACFD20
000001332000004CFFFFFE8100
00000000000000002576400000
ENDCHAR
STARTCHAR Scaron
ENCODING 352
SWIDTH 661 0
DWIDTH 16 0
BBX 16 27 0 -3
BITMAP
0000110000010000
0000CD5002CE2000
00006FFA8FFA0000
000009FFFFC10000
000000CFFE200000
0000002EF4000000
0000000350000000
0000000000000013
0001589A973000B4
019FFFFFFFFC59F2
0BFFF9546AFFFFF0
6FFF5000002AFFE0
AFFF400000007FC0
BFFFE830000007A0
7FFFFFFEB7200040
1CFFFFFFFFFC5000
019FFFFFFFFFFB10
00017BFFFFFFFFC0
021000049EFFFFF6
04800000019FFFF9
05F50000000DFFF8
07FF6000001EFFF3
08FFFC8558EFFF70
0AA6DFFFFFFFD400
0B30048AA9730000
0800000000000000
0200000000000000
ENDCHAR
STARTCHAR scaron
ENCODING 353
SWIDTH 533 0
DWIDTH 13 0
BBX 13 24 0 -1
BITMAP
00010000011000
002EC3004DC000
0009FF8AFF6000
0000CFFFFA0000
00002EFFC10000
000004FE200000
00000043000000
00000000000000
00000100000210
003AEFFC710A00
06FFFFFFFD6F00
2FFE4015CFFE00
7FFC000009FD00
7FFFA20000AD00
3FFFFFC7200A00
07FFFFFFFA3100
014DFFFFFFF700
09005BFFFFFF50
0F600017EFFFB0
1FF700001DFFB0
3FFFC5214EFF70
4FCFFFFFFFFA00
6A038BDDCA5000
40000000000000
ENDCHAR
STARTCHAR Ydieresis
ENCODING 376
SWIDTH 848 0
DWIDTH 20 0
BBX 25 23 -3 -2
BITMAP
00000000002970088100000000
0000000000AFF36FF700000000
00000000007FE13FF400000000
00000000000310022000000000
00000000000000000000000000
12334566789940000000000000
38DFFFFFFFC300011000000000
0004AEFFFF300007EFEEDDCA40
000001BFFFD100002AFFFC5000
0000001CFFFB000006FC300000
00000001DFFF90006FD1000000
000000002EFFF706FD20000000
0000000004FFFF9FE300000000
00000000005FFFFE3000000000
000000000007FFF50000000000
000000000002FFF40000000000
000000000003FFF50000000000
000000000003FFF70000000000
000000000004FFF80000000000
000000000004FFFA0000000000
000000000007FFFD4000000000
0000000016DFFFFFFD83000000
000000039AAAAA999999720000
ENDCHAR
STARTCHAR Zcaron
ENCODING 381
SWIDTH 685 0
DWIDTH 16 0
BBX 18 23 0 0
BITMAP
000001000001000000
00002EB2005EB00000
00000AFF8AFF500000
000001DFFFF8000000
0000002EFFB0000000
00000005FD10000000
000000005300000000
000000000000000000
245556677788999AA1
7FFFFFFFFFFFFFFF50
3FFEDCCBBAEFFFF800
0DF6000007FFFFB000
09F400004FFFFD1000
05F10003EFFFF30000
01D0001DFFFF600010
007001CFFFF9000520
00100AFFFFC1000D10
00008FFFFE20006F10
0006FFFFF40001DF00
004FFFFF700007FE00
02EFFFFFA9877EFD00
1DFFFFFFFFFFFFFC00
478888888999999700
ENDCHAR
STARTCHAR zcaron
ENCODING 382
SWIDTH 549 0
DWIDTH 13 0
BBX 14 22 0 -1
BITMAP
00001000001000
000CD5002BE200
0005FFB8FFA000
00008FFFFD1000
00000BFFE20000
000001DF500000
00000035000000
00000000000000
24445566677787
8FFFFFFFFFFFF6
5FFDBBAAFFFF90
2FF20008FFFD10
0ED0005FFFF300
0B8003EFFF6000
08401DFFFA0030
0400BFFFD10380
0008FFFF300A80
005FFFF7002F90
02EFFFC2008FA0
1DFFFFFFFEFFB0
5ABCDEFFFFFFC0
00000001234550
ENDCHAR
STARTCHAR circumflex
ENCODING 710
SWIDTH 714 0
DWIDTH 17 0
BBX 9 7 5 16
BITMAP
0000200000
0005F60000
003EFF3000
01DFFFD100
0BFFBFFB00
7FD403CF80
1610000610
ENDCHAR
STARTCHAR caron
ENCODING 711
SWIDTH 714 0
DWIDTH 17 0
BBX 9 7 5 16
BITMAP
0100000100
6F81008F70
1DFD7DFE20
03FFFFF400
006FFF7000
0009FA0000
0000710000
ENDCHAR
STARTCHAR breve
ENCODING 728
SWIDTH 715 0
DWIDTH 17 0
BBX 9 6 5 17
BITMAP
0300000300
3FA1008F40
0DFEBDFD00
04FFFFF300
005EFE5000
0001410000
ENDCHAR
STARTCHAR dotaccent
ENCODING 729
SWIDTH 708 0
DWIDTH 17 0
BBX 3 4 7 19
BITMAP
4A40
EFE0
BFB0
0300
ENDCHAR
STARTCHAR ring
ENCODING 730
SWIDTH 704 0
DWIDTH 17 0
BBX 6 6 6 17
BITMAP
001410
05FFE3
0ED7EB
1F90BD
0BFEF8
019B70
ENDCHAR
STARTCHAR ogonek
ENCODING 731
SWIDTH 988 0
DWIDTH 24 0
BBX 10 7 7 -3
BITMAP
0110000000
0AF4000000
2FF2000000
6FF6000000
5FFE8679A1
1DFFFFFF90
029CDC8300
ENDCHAR
STARTCHAR tilde
ENCODING 732
SWIDTH 707 0
DWIDTH 17 0
BBX 9 4 5 17
BITMAP
1AED933C10
3FFFFFFF10
3FDEFFFF10
37016AA600
ENDCHAR
STARTCHAR hungarumlaut
ENCODING 733
SWIDTH 671 0
DWIDTH 16 0
BBX 9 7 4 17
BITMAP
0030003000
00ED73FC60
04FFE9FFD0
0AFF8CFF50
0EFE3FFC00
2BF63CF400
0030003000
ENDCHAR
STARTCHAR endash
ENCODING 8211
SWIDTH 576 0
DWIDTH 14 0
BBX 12 4 1 7
BITMAP
58999AAABBB3
8FFFFFFFFFF5
8FFFFFFFFFF5
599AAABBCCC5
ENDCHAR
STARTCHAR emdash
ENCODING 8212
SWIDTH 993 0
DWIDTH 24 0
BBX 22 5 1 6
BITMAP
2445555556666677777882
8FFFFFFFFFFFFFFFFFFFF5
8FFFFFFFFFFFFFFFFFFFF5
7CCDDDDDEEEEEFFFFFFFF6
0000000000000000001110
ENDCHAR
STARTCHAR quoteleft
ENCODING 8216
SWIDTH 261 0
DWIDTH 6 0
BBX 6 8 0 10
BITMAP
000300
003FC6
00BFFD
05FFF7
0DFFF2
6FFFC0
4BFF70
003A20
ENDCHAR
STARTCHAR quoteright
ENCODING 8217
SWIDTH 301 0
DWIDTH 7 0
BBX 7 8 0 10
BITMAP
00210000
008F9300
00DFFF50
03FFFD00
08FFF500
0DFFC000
2EFF4000
01680000
ENDCHAR
STARTCHAR quotesinglbase
ENCODING 8218
SWIDTH 332 0
DWIDTH 8 0
BBX 7 8 0 -2
BITMAP
00210000
008F9300
00DFFF50
03FFFD00
08FFF500
0DFFC000
2EFF4000
01680000
ENDCHAR
STARTCHAR quotedblleft
ENCODING 8220
SWIDTH 477 0
DWIDTH 11 0
BBX 12 8 0 10
BITMAP
000300003000
003FC601ED71
00BFFD09FFF1
05FFF72FFFA0
0DFFF2AFFF50
6FFFC3FFFE10
4BFF73AFFA00
003A20029400
ENDCHAR
STARTCHAR quotedblright
ENCODING 8221
SWIDTH 477 0
DWIDTH 11 0
BBX 12 8 0 10
BITMAP
003000030000
01FD610DE710
05FFFC3FFFE1
0BFFF68FFF80
1FFFC0DFFE10
6FFF43FFF700
8FFB06FFD100
039300285000
ENDCHAR
STARTCHAR quotedblbase
ENCODING 8222
SWIDTH 477 0
DWIDTH 11 0
BBX 12 8 0 -2
BITMAP
003000030000
01FD610DE710
05FFFC3FFFE1
0BFFF68FFF80
1FFFC0DFFE10
6FFF43FFF700
8FFB06FFD100
039300285000
ENDCHAR
STARTCHAR dagger
ENCODING 8224
SWIDTH 487 0
DWIDTH 12 0
BBX 12 29 0 -8
BITMAP
000000120000
0000DFFF1000
0000DFFF0000
0000DFFF0000
0000CFFF0000
0000CFFF0000
2654DFFE0000
6FFFFFFFFED2
7FFFFFFFFFF1
7FFFFFFFFFF0
3655CFFD2210
0000AFFD0000
0000AFFC0000
0000AFFC0000
00009FFC0000
00009FFB0000
00009FFB0000
00008FFB0000
00008FFA0000
00008FFA0000
00008FFA0000
00007FF90000
00007FF90000
00007FF90000
00006FF80000
00006FF80000
00006FF80000
00006FF70000
000001100000
ENDCHAR
STARTCHAR daggerdbl
ENCODING 8225
SWIDTH 497 0
DWIDTH 12 0
BBX 12 29 0 -8
BITMAP
000000120000
0000DFFF1000
0000DFFF0000
0000DFFF0000
0000CFFF0000
0000CFFF0000
2654DFFE0000
6FFFFFFFFED2
7FFFFFFFFFF1
7FFFFFFFFFF0
3655CFFD2210
0000AFFD0000
0012BFFD6780
7FFFFFFFFFF1
6FFFFFFFFFF2
5FFFFFFFFFF3
00019FFC3441
00009FFB0000
00008FFB0000
00008FFA0000
00008FFA0000
00007FFA0000
00007FF90000
00007FF90000
00007FF90000
00006FF80000
00006FF80000
00006FF70000
000001100000
ENDCHAR
STARTCHAR bullet
ENCODING 8226
SWIDTH 275 0
DWIDTH 7 0
BBX 7 8 0 5
BITMAP
00563000
2CFFF800
AFFFFF40
EFFFFF90
DFFFFF80
7FFFFE20
08FFD400
00010000
ENDCHAR
STARTCHAR ellipsis
ENCODING 8230
SWIDTH 787 0
DWIDTH 19 0
BBX 19 5 0 -3
BITMAP
1AED4003CEB2006DE900
9FFFE10DFFFB02FFFF70
AFFFF10EFFFD03FFFF80
2CFE7005DFD4008FFC10
00100000010000001000
ENDCHAR
STARTCHAR perthousand
ENCODING 8240
SWIDTH 888 0
DWIDTH 21 0
BBX 23 21 0 -2
BITMAP
000000000076200000000000
0169720001FFF60000000000
3EFFFF5007FFE10000000000
CFD5BFE00DFF900000000000
FF805FF34FFF200000000000
DFB18FF1AFFB000000000000
5FFFFF81FFF4000000000000
05BDC607FFD0000000000000
0000000DFF60000000000000
0000004FFE10000000000000
000000AFF800000000000000
000001FFF200000000000000
000007FFA002420001420000
00000DFF42BFFFB2AFFFD300
00004FFC0CFEAEFEFFADFD00
0000AFF52FF708FFFA04FF40
0001FFE01FF708FFFA05FF30
0007FF700BFEAFFEFFBEFC00
000DFF1001BFFFA19FFFB200
0018D9000001310001310000
000001000000000000000000
ENDCHAR
STARTCHAR guilsinglleft
ENCODING 8249
SWIDTH 234 0
DWIDTH 6 0
BBX 6 13 0 -1
BITMAP
000080
0008F3
004FF1
01DFA0
0AFF30
7FFB00
BFF700
4FFD00
08FF50
00BFB0
002EF3
0004F2
000040
ENDCHAR
STARTCHAR guilsinglright
ENCODING 8250
SWIDTH 223 0
DWIDTH 5 0
BBX 6 13 0 -1
BITMAP
360000
9E2000
7FC000
1EF900
09FF50
02FFE2
00DFF5
04FFC0
0BFE20
2FF600
9FA000
8D1000
130000
ENDCHAR
STARTCHAR fraction
ENCODING 8260
SWIDTH 600 0
DWIDTH 14 0
BBX 16 23 -1 -3
BITMAP
000000000000B800
000000000005FFC3
00000000001DFFFD
00000000008FFFF5
0000000002FFFFB0
000000000AFFFF20
000000004FFFF700
00000000CFFFD000
00000006FFFF4000
0000001EFFFA0000
0000009FFFE10000
000002FFFF600000
00000BFFFC000000
00005FFFF3000000
0000DFFF80000000
0007FFFD10000000
001EFFF500000000
009FFFA000000000
03FFFE2000000000
0CFFF70000000000
5FFFC00000000000
4DFF300000000000
0088000000000000
ENDCHAR
STARTCHAR Euro
ENCODING 8364
SWIDTH 590 0
DWIDTH 14 0
BBX 16 15 -1 1
BITMAP
000000059BA71000
000004DFFFFFE600
00005FFF846CFF60
0002EFF60007FFE0
000AFFC00008FFF1
577FFFA43313EFA0
AFFFFFFFFF600200
9CDFFFCAAA600000
116FFF7344400000
AFFFFFFFFFF30014
578DFFFBBBC601B3
0006FFFC20003CD0
0000BFFFEA9BFF50
00000AFFFFFFF600
0000004ADEC82000
ENDCHAR
STARTCHAR trademark
ENCODING 8482
SWIDTH 624 0
DWIDTH 15 0
BBX 16 11 0 7
BITMAP
0073000000000000
00E3000000000000
2AF1000000000000
EFFEC10000000000
0DE2300200000000
0EC04BEECE99EB10
0FB001CE49FA6F50
1F9010AB03F30E60
2F90708A02F10E50
0EEB949947F47A92
0398100033330000
ENDCHAR
STARTCHAR minus
ENCODING 8722
SWIDTH 549 0
DWIDTH 13 0
BBX 13 5 0 6
BITMAP
46544321100000
AFFFFFFFFFEEC0
BFFFFFFFFFFFD0
BFFFFFFFFFFFC0
9BBAA998877750
ENDCHAR
STARTCHAR fi
ENCODING 64257
SWIDTH 757 0
DWIDTH 18 0
BBX 21 33 -2 -10
BITMAP
0000000029EFFD82000000
00000005FFFFFFFF600000
0000003FFF402BFFF60000
000000CFF70000CFFE1000
000003FFF200009FFF5000
000006FFF00003FFFF7000
000008FFE00005FFFF7000
000009FFE00001DFFE2000
000009FFF0000017820000
000008FFF1000000000000
000117FFF3112222332000
00AFFFFFFFFFFFFFFF8000
00AFFFFFFFFFFFFFFF7000
001113FFFA1111AFFF6000
000000FFFB00008FFF4000
000000DFFD00007FFF3000
000000BFFF00006FFF2000
0000009FFF10004FFF1000
0000008FFF30003FFF0000
0000006FFF50002FFE0000
0000004FFF60005FFD1000
0000002FFF802AFFFFD400
0000000FFFA5DEEEEFFF80
0000000DFFC00000000000
0000000BFFD00000000000
00000009FFE00000000000
04A60008FFE00000000000
1FFF5008FFD00000000000
2FFF500BFF900000000000
0EFF102EFF300000000000
06FFB7CFF9000000000000
007FFFFFA0000000000000
0002797300000000000000
ENDCHAR
STARTCHAR fl
ENCODING 64258
SWIDTH 776 0
DWIDTH 19 0
BBX 22 34 -2 -10
BITMAP
0000000000021000000000
000000003AFFFFA3000000
00000005FFFDEFFF700000
0000003FFD201AFFF50000
000000CFF50001EFFD0000
000002FFF10000AFFF4000
000006FFE000007FFF7000
000008FFE000006FFFA000
000009FFE000005FFFB000
000009FFF000004FFFB000
000008FFF100003FFFA000
000117FFF311103FFFA000
00AFFFFFFFFFF42FFFA000
00AFFFFFFFFFF41FFF9000
001113FFFA11101FFF9000
000000FFFB00000FFF8000
000000DFFD00000EFF8000
000000BFFF00000EFF7000
000000AFFF10000DFF6000
0000008FFF30000DFF6000
0000006FFF50000CFF5000
0000004FFF60000BFF4000
0000002FFF80000BFF3000
0000000FFFA0003DFFA100
0000000DFFC018FFFFFE60
0000000BFFD2ABBAA98873
00000009FFE00000000000
04A60008FFE00000000000
1FFF5008FFD00000000000
2FFF500BFF900000000000
0EFF102EFF300000000000
06FFB7CFF9000000000000
007FFFFFA0000000000000
0002797300000000000000
ENDCHAR
STARTCHAR .notdef
ENCODING -1
SWIDTH 320 0
DWIDTH 8 0
BBX 1 1 0 0
BITMAP
00
ENDCHAR
ENDFONT
